<svg xmlns="http://www.w3.org/2000/svg" xmlns:xlink="http://www.w3.org/1999/xlink" width="1067" height="1067" viewBox="0 0 1067 1067">
  <defs>
    <style>
      .cls-1, .cls-2, .cls-3, .cls-4, .cls-5, .cls-6 {
        fill-rule: evenodd;
      }

      .cls-1 {
        fill: url(#linear-gradient);
      }

      .cls-2 {
        fill: #fff;
      }

      .cls-4 {
        fill: url(#linear-gradient-2);
      }

      .cls-5 {
        fill: url(#linear-gradient-3);
      }

      .cls-6 {
        fill: #a0b5e5;
      }
    </style>
    <linearGradient id="linear-gradient" x1="533.235" y1="990.188" x2="533.235" y2="76.875" gradientUnits="userSpaceOnUse">
      <stop offset="0" stop-color="#b9aeae"/>
      <stop offset="0.5" stop-color="#faf7f6"/>
      <stop offset="1" stop-color="#b9aeae"/>
    </linearGradient>
    <linearGradient id="linear-gradient-2" x1="534.5" y1="777" x2="534.5" y2="587.594" gradientUnits="userSpaceOnUse">
      <stop offset="0" stop-color="#faf7f6"/>
      <stop offset="1" stop-color="#cbbfbf"/>
    </linearGradient>
    <linearGradient id="linear-gradient-3" x1="534.5" y1="1021.16" x2="534.5" y2="35.031" gradientUnits="userSpaceOnUse">
      <stop offset="0" stop-color="#fff"/>
      <stop offset="1" stop-color="#6486d5"/>
    </linearGradient>
  </defs>
  <path id="渐变填充_7" data-name="渐变填充 7" class="cls-1" d="M507,77c124.668-2.391,213.178,31.534,285,82,72.494,50.938,125.226,114.067,162,201,10.478,24.77,18.023,52.629,26,81,3.383,12.033,3.252,25.327,6,37q0.5,11,1,22c2.855,13.244,4.19,36.847,1,51v16c-2.609,11.488-1.1,24.02-4,36-8.952,36.95-15.234,72.227-29,104C902.972,827.087,815.972,909.691,694,960c-28.339,11.689-59.869,16.24-92,24-13.7,3.309-29.411,1.84-42,5-11.038,2.771-48.58.109-57-2H489c-11.355-2.6-24.183-1.931-36-5-38.415-9.976-71.553-18.782-104-33-98.533-43.177-185.843-125.043-229-223-10.687-24.256-17.221-47.783-26-75C82.018,613.854,69.909,533.322,81,485l3-30c7.837-30.976,13.612-61.546,25-89,48.946-118,132.786-203.307,249-254,29.436-12.84,62.262-19.537,96-28C464.552,81.353,501.06,81.515,507,77Z"/>
  <path id="颜色填充_3" data-name="颜色填充 3" class="cls-2" d="M458,167v4c17.14,1.385,20.58,17.784,30,27,3.976,3.889,8.548,9.894,13,13,2.586,1.805,5.84,1.862,8,4,2.414,2.39,3.069,6.069,6,8,7.04,4.638,16.683,5.488,24,10,9.191,5.667,16.135,15.051,30,16v-1c-3.378-1.342-4.131-.778-5-5a18.319,18.319,0,0,1,6-1,19.911,19.911,0,0,0,12,5v-2c-6.871-.876-7.471-4.8-12-7-9.184-4.462-29.135-13.587-34-21-1.92-2.925-1.859-8.446-3-12-1.308-.61-3.183-2.686-4-3-3.283-1.261-3.847,2.073-7,0-5.917-3.889-14.549-25.694-19-33-2.69-4.415-6.859-4.14-8-11h-1c-0.99-1.01.985-.989,1-1v-1c1.754,0.631.971,0.193,2,1,5.215,1.8,5.138,6.424,9,9,2.373,1.583,5.32.594,8,2,5.793,3.039,11.222,9.671,16,14,4.872,4.415,18.082,3.152,22,7q1,3,2,6h5c4.721,1.959,10.356,6.876,15,10,5.8,3.9,9.9,11.646,16,15,9.267,5.095,24.454,5.609,29,15,0.752,1.073.6,0.946,1,3,9.035,0.134,10.108,4.115,18,5v-1c-2.316-1.615-2.352-1.461-3-5h2c4.31-2.289,10,3.28,16,4v-1c-3.279-1.2-23.879-11.071-26-13-1.6-1.454-1.975-4.97-4-6-8.23-4.188-15.32-2.989-17-14h1v-1l9,3c1.556-2.389,2.923-2.924,4-6-6.388-.54-35.059-18.366-32-24,12.721-9.585,41.1-6.829,41,13,13.1,0.087,11.569,8.516,19,13,9.2,5.55,18.934,10.164,28,15,6.01,3.206,12.526,2.942,13,12,7.021-.539,10,0.677,16,2,4.283,0.944,6.737-1.416,9-2,5.487-1.415,10.823,1.23,14,2,2.848,0.69,6.713-.752,8-1l22,3c3.225,1.625,6.024,6.055,9,8,3.89,2.543,8.478,1.739,13,4,9,4.5,17.265,12.494,26,17,6.025,3.108,12.36.471,20,3,3.676,1.217,6.716,5.62,10,7l9,2c11.851,6.11,21.893,14.44,35,20v-2c-3.156-1.091-2.967-2.117-5-4v-1h1c1.417-.961,3.273-0.976,6-1,7.248,6.719,29.95,10.338,41,13,18.093,32.982,32.7,68.547,48,105v10l3,2v9c0.254,0.749,2.8,2.482,3,3v9c0.253,0.749,2.8,2.483,3,3v9c0.25,0.742,2.8,2.491,3,3v15c0.246,0.742,2.8,2.493,3,3v60c0,27.705,1.771,58.2-6,78v10c-0.2.516-2.745,2.253-3,3-2.354,6.907-.33,11.661-4,17v-1c-4.293-5.082-4.837-13.991-8-20-5.218-9.911-15.467-21.372-25-27-11.454-6.762-29.754-4-39,2-24.24,15.73-30.834,39.769-38,73-1.86,8.624-.555,23.942,1,31,1.617,7.339.146,12.386,2,19a130.835,130.835,0,0,0,24,47c4.833,6.079,20.756,9.129,22,17-5.075,3.393-5.3,8.3-9,13-1.219,1.545-4.911,2.464-6,4q-0.5,3-1,6c-1.031,1.322-3.848,1.77-5,3-2.263,2.416-1.877,6.324-4,9-2.807,3.538-8.68,6.091-11,10v3l-7,8c-36.2,36.28-72.861,65.243-121,90-12.039,6.191-25.382,15.712-38,21h-6c-2.642.97-6.5,4.954-9,6-5.294,2.216-8.34.694-13,3l-2,3c-5.856,2.552-11.607.847-18,3-6.08,2.047-15.078,6.712-21,9H631c-4.444,1.149-13.1,4.507-17,6H602c-0.733.239-2.5,2.811-3,3H507c-33.882.007-60.991-4.225-85-14l-11-1c-5.944-2.384-14.913-6.8-21-9h-6c-2.5-1.055-6.356-5.028-9-6-18.344-6.745-34.355-12.418-51-21-3.715-1.915-7.628-7.159-11-9-3.031-1.655-6.975-1.341-10-3l-5-6c-4.02-2.206-7.33-1.6-11-4-4.308-2.821-12.395-11.994-16-14h-4l-5-6h-4l-11-12-5-1-16-17-5-1c-6.533-4.343-10.832-11.991-15-19-3-5.046-10.394-8.331-14-13q-0.5-3-1-6c-2.5-3.425-9.622-6.776-12-11v-4c-1.112-1.545-4.772-2.442-6-4-2.591-3.286-14.31-21.7-15-25,0.8-1.021.355-.274,1-2,13.985-3.8,20.315-17.546,27-29,25.2-43.174,15.636-125.394-20-149-28.176-18.664-65.436,4.064-70,30H93c-0.093-6.561-1.863-8.5-3-12V599c-0.183-.487-2.764-2.274-3-3V581c-0.182-.486-2.765-2.275-3-3V554c-0.233-.727-2.816-2.512-3-3V509c0.19-.5,2.76-2.266,3-3V485c0.191-.5,2.76-2.265,3-3V464c0.192-.5,2.758-2.264,3-3V449c0.194-.5,2.753-2.262,3-3v-9c0.2-.511,2.751-2.256,3-3v-9l3-2v-7l3-2c1.989-4.817.834-13.972,3-19l3-2v-7c0.868-1.981,5.135-6.019,6-8v-7c0.869-1.981,5.135-6.018,6-8v-7c2.769-6.309,8.86-13.839,12-20,4.9-9.618,6.818-18.545,12-28l6-5c1.656-3.025,1.343-6.977,3-10l6-5v-4l6-5v-4l6-5v-4c1.391-2.5,5.243-4.39,7-7,1.754,0.631.971,0.193,2,1,14.57,3.771,20.313,17.308,37,19v-2c-3.916-.639-3.826-0.687-5-4a18.319,18.319,0,0,1,6-1,26.65,26.65,0,0,0,15,5v-1c-3.336-3.663-3.068-9.746-6-14-2.882-2.106-6.833-2-10-4-6.749-4.258-13.635-14.205-22-16-1.889,1.572-2.066,1.889-4,1h-1q0.5-1.5,1-3c5.926-4,13.5-17.319,18-19v-1c1.01-.99.988,0.985,1,1,9.067,9.03,19.054,20.149,30,27,9.054,5.667,26.835,6.912,31,17,0.752,1.073.6,0.946,1,3-4.138,2.644-11.181,7.962-14,12h2c4.1-3.149,9.519-6.974,14-9v-1l15,2c2.944-.314,3.351-2.394,5-3,6.817-2.508,13.837,2.245,19,3v-2h-1v-1c-9.443-.1-13.323-4.508-19-8l-13-4c-8.839-5.435-17.665-12.9-25-20v-2a14.115,14.115,0,0,1,4-1c3.074,3.437,5.869,6.5,12,7v-4a18.319,18.319,0,0,1,6-1c3.253,2.636,7.974,3.074,14,3v-2h-1v-1c-20.621.372-56.262-22.689-60-37h3c3.213-5.1,10.718-14.228,18-15,1.073-.752.945-0.6,3-1v5c8.716,5.79,12.52,13.7,18,23,3.933,6.673,18.643,13.414,23,19,1.831,2.347.453,5.081,2,8,0.381,0.72,18.063,21.281,19,22,2.26,1.736,6.091,1.959,8,4,1.588,1.7.483,5.147,2,7,0.957,1.17,3.713,1.041,5,2,11.039,8.22,18.009,13.764,33,19-0.075,3.042-.756,2.744,0,4,1.179,0.8,1.681.773,4,1,1.474-2.933,1.082-3.223,5-4,3.45,2.476,8.119,3.043,14,3v-2h-2c-4-2.46-9.024-1.265-14-3-6.441-2.246-25-11.891-28-17v-4c-4.229-5.526-10.569-2.5-12-13a14.124,14.124,0,0,1,4-1c5.186,5.765,13.692,11.628,24,12v-2c-3.426-1.257-4.979-.946-6-5a18.319,18.319,0,0,1,6-1c5.935,4.482,15.485,8.826,25,9a18.711,18.711,0,0,1,5-3v-1h-9c-7.5,4.419-15.561-6.843-20-9l-9-2c-3.14-2.01-6.234-8.534-8-10-1.877-1.558-8.551-2.446-11-4-6.1-3.87-11.711-11.014-17-16,1-2.748,1.44-2.195,3-4l-5,1c-2.445-3.947-5.127-7.327-6-13,2.091-1.121,1.832-1.435,5-2,1.073,0.752.945,0.6,3,1a12.662,12.662,0,0,1,1-4c13.652,2.615,25.793,5.2,35,12,3.378,2.494,7.457,10.811,11,14l6,2c5.586,3.793,10.157,10.354,17,13l7,1c6.708,3.427,17.806,15.56,25,21l12,14,9,3c2.684,1.794,3.473,7.353,6,9h8c3.922,2.076-.655,4.248,8,5,0.372-2.076.242-1.925,1-3,1.3-.877,2.467-0.894,5-1,2.863,2.323,6.815,2.963,12,3v-2c-19.73-1.384-46.579-18.793-52-35a14.115,14.115,0,0,1,4-1,18.819,18.819,0,0,0,12,5v-1c-8.422-3.336-30.477-14.638-31-25,4.014-2.382,3.509-4.6,10-5,2.026,2.119,2.942,2.651,7,3v-1c-6.516-3.588-16-6.279-24-8-2.15-4.275-6.533-8.443-8-13V203c-1.557-6.305-3.614-14.375-4-22a6.1,6.1,0,0,0,2-2h1v1c14.8,9.111,20.173,27.4,34,37,7.3,5.065,17.276,7.455,18,19,9.151,0.957,21.539,3.491,28,8,1.913,1.335,2.234,5.928,4,7h6c3.972,1.405,8.762,4.183,13,6v-2a10.665,10.665,0,0,1-5-4c2.281-1.225,2.251-1.638,6-2,2.268,1.843,5.859,3.187,9,4v-1c-2.443-1.431-3.107-3.392-5-5-3.716-3.156-10.138-3.11-14-6-2.034-1.522-2.121-6.829-4-8h-7c-4.706-1.651-18.987-14.834-21-19-0.8-1.18-.773-1.681-1-4h-3c-3.717-6.136-9.315-11.257-13-17-3.377-5.263-3.622-10.893-7-16-4.977-7.524-9.436-8.2-12-20,2.091-1.121,1.832-1.434,5-2,4.433,4.556,14.027,10.621,21,12v-2c-1.873-.787-17.592-10.2-18-11v-9c2.067-1.183,1.882-.684,3-3-3.977-1.082-6.21-2.5-7-7,0.752-1.073.6-.946,1-3-1.8-1.044-7.761-4.317-9-6-4.934-6.7-7.774-26.9,4-28,3.865,5.692,13.154,5.316,17,11,1.852,2.738,8.05,17.191,9,20v7c4.195,9.419,13.466,18.4,17,29h-1C461.333,166.938,461.561,166.668,458,167Zm170,38v2h3v-2h-3Zm32,36c-0.771.682-2.232,1.311-3,2h1v1c2.308,0.525,10.121,1.093,12-2Zm-49,5a19.566,19.566,0,0,1-4,2v1h3a11.568,11.568,0,0,1,3-2C611.979,246.2,612.726,246.645,611,246Zm-24,1v2l13,1v-2h-8C590.705,247.123,589.533,247.106,587,247Zm-46,6c0.387,2.53-.581,1.578,3,2v-2h-3Zm-23,2v2h6v-1h-1v-1h-5Zm-63,7c-2.312,1.541-8.105,1.119-12,1v1c3.1,1.667,6.486,2.1,12,2,1.85-1.445,2.684-.714,4-3h-1v-1h-3Zm-222,1v2c4.118,1.4,4.62,2.894,11,3v-2Zm5,15v2c3.58-.416,2.516.472,4-2h-4Zm-47,9a11.568,11.568,0,0,1-3,2v1h4c1.133-1.546,1.084-.843,2-3h-3Zm-21,2c1.021,0.8.274,0.355,2,1C170.979,289.2,171.726,289.645,170,289Zm48,155c-4.095,3.576-10.676,4.785-15,8-11.812,8.781-19.155,26.395-24,42q-0.5,9.5-1,19c-6.053,29.183,9.191,56.377,23,70,4.876,4.811,16.055,14.363,27,12C289.928,581.631,292.624,442.883,218,444Zm591,0c-4.561,3.837-12.293,4.526-17,8-12.83,9.469-19.74,28.021-25,45q-0.5,10-1,20c-0.008,31.643,8.264,50.5,24,66,5.038,4.962,15.417,13.474,27,11C878.082,580.953,877.6,443.277,809,444ZM445,606c-4.757,4.665-8.121,4.886-8,15h1c4.712,13.078,38.479,28.434,50,39,0.091,8.751,3.333,35.127,1,39-2.414,7.824-7.864,10.725-15,14-3,1.379-6.884,4.987-10,6-7.924,2.575-17.906-.165-24-2-8.112-2.443-13.22-.668-20-4-10.463-5.142-23.078-17.3-37-18-4.6,4.625-7.192,4.947-7,15h1c2.746,7.857,10.446,9.8,17,14a174.886,174.886,0,0,0,36,18l19,1c3.415,0.787,9.747,3.627,15,2,11.111-3.442,22.787-9.337,31-16,2.007-1.628,7.371-5.458,9-4,6.235,2.319,7.97,8.892,13,12,9.515,5.879,18.675,12.231,29,17l8,1c31.083,10.2,51.489-4.025,70-18,7.508-5.669,14.831-9.872,15-23-1.563-1.626-2.178-3.572-4-5-2.655-2.153-6.307-2.868-11-3-6.921,7.629-23.28,20.91-33,25l-14,1c-24.57.076-40.753-7.882-52-21-4.553-5.31-10.7-6.118-11-16-2.826-4.335-1.1-29.745,0-35,15.652-6.877,60.3-20.008,64-36,0.619-4.155-3.055-11.622-10-12-5.632-3-14.73,4.08-19,6-3.468,1.56-6.164.3-10,2-13.66,6.056-25.348,16.443-43,16C488.8,628.758,457.14,606.531,445,606Z"/>
  <path id="颜色填充_2" data-name="颜色填充 2" class="cls-3" d="M444,610c27.362,0.03,34.26,29.569,65,30,4.539-5.618,23.9-13.551,31-17l9-1c2.551-1.058,6.117-5,9-6,7.026-2.434,15.3-.467,17,5,4.211,13.529-29.031,19.656-37,24-5.1,2.779-27.217,11.722-29,16v33c1.754,2.335,1.3,6.328,3,9,9.43,14.82,53.489,45.134,82,30,10.452-5.548,23.191-22.69,35-24,4.446,4.057,6.251,3.633,6,13-0.752,1.073-.6.946-1,3-7.667,3.737-12.854,13.436-20,18-21.152,13.507-51.476,16.594-76,4-5.556-2.853-10.979-8.624-16-12-2.657-1.786-5.773-1.874-8-4-4.232-4.04-5.011-9.483-12-11-3.35,4.5-8.064,5.945-13,9-6.667,4.126-14.569,9.727-23,12-22.424,6.047-57.22-10.829-68-18-8.151-5.422-18.4-7.018-20-19,3.287-3.218,3.6-5.494,10-6,10.142,9.7,58.01,32.324,80,23,11.213-4.755,16.919-13.333,25-21-0.168-10.732,1.769-34.751-3-43-7.122-12.32-41.622-20.435-48-35C438.2,617.428,441.252,613.3,444,610Z"/>
  <path id="渐变填充_6" data-name="渐变填充 6" class="cls-4" d="M131,589c50.428-.64,60.052,33.895,69,74v20c0,32.954-6.957,53.879-20,73-5.31,7.784-11.925,17.3-23,19-1.078-2.317-.941-5.908-1-6-0.965-1.5-5.053-2.2-6-4v-5l-3-1v-5c-1.082-1.548-5.017-2.133-6-4v-5l-3-1v-5l-3-1v-4c-1.062-2.058-4.871-6.03-6-8v-5l-3-1v-5l-3-1c-1.6-3.376-1.039-10.246-3-14l-3-1v-8l-3-1v-5l-3-1c-1.526-2.686-1.469-13.723-3-17l-3-1v-8l-3-1v-8l-3-1V637l-3-1-1-11c4.923-5.931,7.407-13.848,12-20C112.847,597.168,123.318,595.105,131,589ZM914,777c-16.445-.212-25.148-12.852-32-23-14.406-21.337-27.5-70.032-16-107,5.186-16.674,11.846-27.82,21-40,7.121-9.475,21.622-24.026,43-18,19.93,5.618,33.9,24.565,41,43,1.7,4.417,1.139,8.377,3,12l-3,2v8l-3,1v8l-3,1v8l-3,1v8l-3,1v8l-3,1v5l-3,1v5l-3,1v8l-3,1v5l-3,1v5l-3,1v5l-3,1v5c-1,2.1-4.912,5.925-6,8v4l-3,1v5c-0.988,1.889-4.881,2.439-6,4v5C920.456,767.215,914.817,770.054,914,777Z"/>
  <path id="颜色填充_1" data-name="颜色填充 1" class="cls-3" d="M216,448c6.633-.1,17.09-1.4,22,1,43.552,21.285,45.318,128.116-6,142-10.37,2.806-19.123-2.757-24-6-15.653-10.408-19.694-23.719-25-45-1.794-7.2-5.441-20.209-3-31,3.85-17.019,6.917-32.4,15-45C199.768,456.57,209.2,453.54,216,448Zm590,0c70.5-1.091,66.246,129.7,12,143-12.026,2.949-23.359-6.559-28-12-15.648-18.343-27.854-51.2-19-85,3.5-13.359,10.3-28.4,19-37C794.224,452.827,801.34,451.752,806,448Z"/>
  <path id="渐变填充_1" data-name="渐变填充 1" class="cls-5" d="M910,200v6h3c0.126,1.282,5,8.318,6,9h3s-0.594,2.021,0,3h3v6h3c0.252,2.643,1.579,3.63,3,6h3v6h3c-0.287,2.457-.659.482,0,3h3v6h3c0.252,2.643,1.579,3.63,3,6h3v6h3c-0.287,2.457-.659.482,0,3h3v6h3v6h3c-0.287,2.457-.659.482,0,3h3v6h3v6h3c-0.287,2.457-.659.482,0,3h3v6h3v6h3v6h3v6h3v6h3v6h3v9h3v6h3v9h3v6h3v9h3v9h3v9h3v12h3v9h3v12h3v15h3v15h2V617h-2v15h-3v15h-3v12h-3v9h-3v12h-3v9h-3v9h-3v6h-3v9h-3v9h-3v6h-3v6h-3v6h-3v6h-3v9h-3v3h-3v6h-3v6h-3v6h-3v6c-5.86,1.044-1.039,2.008-6,3v6h-3v6c-5.86,1.044-1.039,2.008-6,3v6c-5.859,1.044-1.039,2.008-6,3v6c-5.86,1.044-1.039,2.008-6,3v6c-6.023,1.091-3.854,4.863-9,6v6c-6.925,1.245-5.952,7.613-12,9v6c-8.546,1.569-15.936,18.985-24,21v6c-9.471,1.775-6.43,11.074-18,12a2.834,2.834,0,0,1-1,1v1c1.22,0.252-5.718,4.2-6,6,1.436,0.7-9.2,8.489-12,11q0.5,1,1,2c-1.493.941-2.83,0-4,1q0.5,1,1,2h-6a2.834,2.834,0,0,1-1,1c-0.829,5.645-17.042,12.6-17,16v1c-4.061,2.366-16.2,6.37-12,9h-6a2.834,2.834,0,0,1-1,1c-0.33,3-1.847,4.95-8,5a2.834,2.834,0,0,1-1,1q0.5,1,1,2c-3.8.728-6.234,2.527-10,4q0.5,1,1,2c-5.711,1.112-10.366,4.8-16,7-0.28,2.6.016,1.968-5,2a2.834,2.834,0,0,1-1,1c-0.28,2.6.016,1.968-5,2a2.834,2.834,0,0,1-1,1q0.5,1,1,2c-3.971.785-1.947,1.739-4,3h-5q-0.5,1.5-1,3h-5q-0.5,1.5-1,3c-1.952,1.1-7.577.5-9,1-0.28,2.6.016,1.968-5,2v1h-1c-0.28,2.6.016,1.968-5,2-3.16,5.038-9.726,4.978-16,7-0.28,2.6.016,1.968-5,2-2.953,4.435-3.782.586-9,3q-0.5,1.5-1,3h-8q-0.5,1.5-1,3h-8q-0.5,1.5-1,3c-2.618,1.43-9.929.32-12,1-0.423,2.69-2.477,2.2-8,2-3.368,5.06-6.01.33-12,3q-0.5,1.5-1,3H637c-14.772,6.52-39.444,5-61,5H476c-8.627,0-19.384.44-25-2H434l-1-3H422l-1-3H410q-0.5-1.5-1-3H398l-1-3h-8l-1-3h-8q-0.5-1.5-1-3h-8l-1-3h-8l-1-3h-8l-1-3h-5c-3.314-2.03.386-2.591-7-3,0.287-2.457.659-.482,0-3-12.628.079-24.379-10.2-33-15h-5l-1-3h-5l-1-3h-5q-0.5-1.5-1-3h-3c-0.327-.241,1.762-2.049,0-3h-5l-1-3h-5v-1c-1.611-1.608-3.395-4.673-4-5h-5v-1c-1.614-1.61-3.393-4.671-4-5-3.682-1.992-5.94-.743-9-3-0.326-.24,1.76-2.047,0-3h-5c-1.747-1.1-7-9-7-9h-5c-1.761-1.111-7-9-7-9h-5c-0.864-.565-7-9-7-9h-3q0.5-1,1-2c-1.061-.929-2.743-0.065-4-1q0.5-1,1-2h-1v-1h-5c-2.675-1.756-4.313-7.1-7-9h-3c-0.341-.264,1.646-1.9,0-3h-3c-0.329-.252,1.637-1.911,0-3h-3q0.5-1,1-2c-1.808-1.59-4.973-.107-3-3-7.89-6.94-17.265-13.457-22-22h-3v-6h-3c-0.126-1.282-5-8.318-6-9h-3s0.593-2.021,0-3h-3v-6h-3c-0.253-2.643-1.579-3.63-3-6h-3v-6h-3c-0.253-2.643-1.579-3.63-3-6h-3v-6h-3c0.287-2.457.659-.482,0-3h-3v-6h-3c0.287-2.457.659-.482,0-3h-3v-6h-3c0.287-2.457.659-.482,0-3h-3v-6h-3v-6h-3c0.287-2.457.659-.482,0-3h-3v-6h-3v-6H97v-6H94v-6H91v-6H88v-6H85v-6H82v-6H79v-9H76v-6H73v-9H70v-6H67v-9H64v-6H61V674H58V662H55V650H52V638H49V623H46V605H43c0-47.988,0-99.012,0-147h3V440h3V425h3V413h3V401h3V389h3v-9h3v-9h3v-9h3v-9h3v-6h3v-9h3v-6h3v-6h3v-9h3v-6h3v-6c2.076-.372,1.925-0.242,3-1,1.972-1.479-.559-1.425,3-2v-6h3v-6h3v-6h3v-6c2.076-.372,1.924-0.242,3-1,1.972-1.479-.56-1.425,3-2v-6h3v-6c2.076-.372,1.924-0.242,3-1,1.972-1.479-.56-1.425,3-2v-6c2.076-.372,1.924-0.242,3-1,1.972-1.479-.56-1.425,3-2v-6c2.076-.372,1.924-0.242,3-1,1.691-1.445,2.481-4.366,6-5v-6c2.076-.372,1.924-0.242,3-1,1.691-1.445,2.481-4.366,6-5v-6c2.076-.372,1.924-0.242,3-1,2.347-2.095,4.762-7.1,9-8v-6c2.076-.372,1.924-0.242,3-1h1v-1c0.006-2.485,13.461-10.7,11-13,2.678-1.742,14.295-9.855,12-12,12.2-7.886,16.109-15.691,28-27h5l1-1q-0.5-1-1-2c1.8-1.164,8.8-3.365,6-6h3c1.713-1.029,2.531-4.6,4-6h5s5.266-7.356,7-9h5c0.979-.508,2.011-4.16,4-6h5c0.974-.5,2.015-4.164,4-6h5c0.97-.5,2.018-4.167,4-6,0.965-.892,9.078-2.02,11-3,1.264-.645.845-2.183,0-3,5.524-3.538,15.633-8.756,21-9,3.228-7.1,12.361-7.546,21-12l1-3c2.027-1.3,6.39.081,8-1,1.568-1.152.352-1.923,6-2,3.573-5.456,1.222-.461,6-3l1-3h8l1-3h5l1-3h8l1-3h8l1-3h8l1-3h8l1-3h11l1-3h11l1-3h11l1-3h14l1-3h17l1-3h23c10.017-4.346,30.488-2,44-2,15.567,0,40.132-3.158,52,2h26c1.637,0.891-.267,2.453,3,3h15l1,3h14l1,3h11l1,3h11l1,3h11l1,3h8l1,3h8l1,3h8c3.143,1.76-.606,2.6,7,3l-1,2h1c1.607,1.063,12.1,3.91,15,4l-1,2h1c1.709,1.108,5.743-.272,8,1l1,3h5c3.229,1.951-.381,2.707,7,3l-1,2h1c1.417,0.961,3.273.976,6,1l-1,2h1c1.417,0.961,3.273.976,6,1l-1,2h1c1.417,0.961,3.273.976,6,1l-1,2h1c1.417,0.961,3.273.976,6,1l-1,2h1c4.759,3.277,10.8,4.276,15,8-0.251.968-.784,0.379,0,1,1.417,0.961,3.273.976,6,1,0.133,5.106.594,0.034,5,3q0.5,1.5,1,3c1.2,0.778,2.147.291,3,1-0.252.968-.784,0.379,0,1,3.024,2.094,6.368,2.666,9,5-0.251.968-.784,0.379,0,1,3.024,2.094,6.368,2.666,9,5-0.251.968-.784,0.379,0,1,2.706,2.025,6.271,1.941,9,4l3,6h5q0.5,1.5,1,3h3c0.322,0.236-1.76,2.054,0,3h5l4,6h3q-0.5,1-1,2c2.034,1.806,10.563,6.911,9,9,1.721,1.346,4.821-.315,7,1q-0.5,1-1,2c2.441,2.045,6.082,3.233,6,5-1.423,2.043,3.392,1.528,4,2q-0.5,1-1,2c2.09,1.849,10.478,6.846,9,9,7.857,6.939,17.309,13.459,22,22h3ZM471,86H457l-2,3c-3.7,1.32-8.4-2.249-13,0l-1,3H430q-0.5,1.5-1,3c-2.451,1.4-14.619,1.641-17,3l-1,3c-4.942,2.343-11.888.777-17,3q-1,1.5-2,3h-7q-1,1.5-2,3h-7l-1,3h-5q-0.5,1.5-1,3h-8l-1,3h-5l-1,3h-5q-0.5,1.5-1,3c-2.579,1.619-8.048,1.49-11,3-4.227,2.161-9.777,6.83-14,9-3.878,1.992-6.2.9-10,3-1.853,1.024-2.445,4.906-4,6-2.2,1.549-8.28,1.571-11,3l-5,6h-4l-5,6h-4l-5,6h-4l-8,9h-4l-8,9h-4l-14,15h-4c-0.881.489-23.5,23.1-24,24v4l-15,14v4l-9,8v4l-9,8v4l-6,5v4l-6,5v4l-6,5c-1.655,3-1.347,6.991-3,10l-6,5c-3.075,5.582-2.994,10.374-6,16l-4,3c-1.732,3.28-.273,5.716-2,9l-4,3c-2.778,5.18-2.252,9.616-5,15-0.625,1.225-3.41,2.461-4,4v6c-1.033,2.305-5.041,6.394-6,9-1.666,4.526-.064,7.066-2,11l-3,2v6c-1.06,2.918-4.813,9.2-6,12q-0.5,5.5-1,11c-6.091,14.082-8.447,33.551-14,49q-0.5,10-1,20l-2,1q-0.5,11.5-1,23c-4.037,11.682-3.958,32.932,0,44v25l3,2v12c0.318,6.295,1.982,4.023,3,6v16c12,33.272,17.4,67.108,32,92v7c0.321,0.829,2.738,1.563,3,2v4c1.072,2.307,4.782,5.917,6,8v5l3,1v5l3,1v5c1.912,3.553,7.18,7.608,9,11,1.65,3.076,1.329,6.954,3,10l6,5v5l3,1v4c1.04,1.732,4.965,3.1,6,5v4c3.385,6.122,12.672,10.047,16,16v4l12,11v4l15,14c3.732,6.688,10.809,17.49,17,21h4q0.5,1.5,1,3c4.169,3.932,8.606,7.3,13,11,0.83,0.7,1.242,3.457,2,4h5c2.324,1.625,7.5,10.543,10,12h5c1.553,1.094,2.133,5,4,6h5c1.511,1.029,2.491,4.8,4,6,6.886,5.469,13.781,7.58,22,12,1.9,1.021,3.272,4.971,5,6,3.631,2.163,6.274.962,10,3,3.373,1.845,7.287,7.077,11,9,5.723,2.965,10.257,3.068,16,6,2.028,1.036,5.942,5.088,8,6h7c4.182,1.841,9.821,7.148,14,9h7c1.989,0.874,6.012,5.12,8,6h7l2,3h7l2,3h7l2,3h10l2,3h7l2,3c4.57,2,5.988-1.576,10,0l2,3c5,2.2,8.678-1.591,13,0,13.633,5.02,26.964,7,49,7h63l28-1,2-3c5.209-2.148,7.577,2.292,13,0l2-3c4.028-1.584,5.638,1.987,10,0l2-3h13l2-3h7l2-3h7l2-3h10l2-3h7c1.992-.88,6.008-5.116,8-6h7c1.992-.88,6.008-5.116,8-6h7c12.209-5.392,26.049-14.866,38-21,5.7-2.925,10.394-2.927,16-6l5-6c4.006-2.205,7.354-1.581,11-4,1.352-.9,1.832-4.184,3-5h5c1.867-1,2.448-4.91,4-6h5c3.053-1.625,4.353-7.126,7-9h5c2.048-1.1,2.4-4.4,4-6,2.47-2.468,4.64-1,8-3,2.957-1.761,7.112-9.887,10-12h4c5.881-3.422,12.972-13.942,18-19,16.221-16.316,32.323-32.067,44-53,3.3-5.915,12.416-10.067,16-16,1.749-2.9,1.387-6.935,3-10l6-5c1.67-3.034,1.352-6.933,3-10,1.869-3.478,7.03-7.175,9-11v-4c1.068-2.089,4.969-5.9,6-8v-5l3-1v-5l3-1v-5c0.852-1.464,5.337-6.306,6-8v-7l3-1v-5c0.8-1.52,4.391-5.625,5-7v-7l3-1c2.2-3.45-1.707-4.294,0-8l3-1c2.082-3.269-1.091-3.714,0-7,0.515-1.552,3.537-3.439,4-5,0.261-.883-1.9-2.789-1-5l3-2v-7l3-2V634l3-2V622c0.2-.506,2.749-2.261,3-3V609c0.111-.22,2.761-1.337,3-2V592c4.412-11.554,3-32.765,3-49V480c-6.765-29.06-11.3-59.45-22-84v-7c-2.615-6.67-8.169-15.725-11-22-2.316-5.134-.685-8.427-3-13-40.553-80.123-83.9-143.079-158-190l-5-7h-4c-1.733-1.04-3.1-4.965-5-6h-4l-5-6c-7.485-4.122-14.492-4.916-22-9l-4-5c-3.235-1.647-9.125-1.192-12-3q-0.5-1.5-1-3c-1.578-.885-7.4-3.758-8-4-3.557-1.436-9.09-1.173-12-3q-0.5-1.5-1-3h-4l-2-3h-7c-1.99-.877-6.011-5.118-8-6h-7l-2-3h-8l-2-3c-0.657-.252-3.813,1.9-6,1l-2-3h-7l-2-3H642l-2-3H630l-2-3H618l-3-4-12,1c-1.106-.456-2.511-3.631-4-4-3.422-.847-13.276,3.583-18,1q-0.5-1.5-1-3H555l-2-3-32-1c-2.22.737-6.626,3.2-10,4-12.986,3.081-28.194-1.01-40,3v3Z"/>
  <path id="damao" class="cls-6" d="M1278.3,544.8c0,69.6-1.2,176.4-4.2,186.6-14.4,4.2-51,7.8-62.39,8.4l-2.4,12.6c14.4-.6,141.59-1.2,175.19-1.2,230.4,0,330-124.2,330-250.8,0-54.6-28.2-111.6-98.4-145.2-39.6-19.2-99-27.6-169.2-27.6-46.2,0-117.6,2.4-138.6,2.4-25.2,0-89.99-1.2-98.99-2.4l1.2,12.6c14.4,1.2,47.99,5.4,63.59,8.4,3,12,4.2,121.8,4.2,148.8v47.4Zm68.4-18c0-26.4,2.4-164.4,4.2-173.4,12.6-2.4,39-3.6,52.8-3.6,55.8,0,127.8,12,171.6,44.4,49.8,37.2,65.4,87.6,65.4,138.6,0,127.8-109.8,195-224.4,195-15.6,0-39-.6-65.4-10.8-2.4-21.6-4.2-134.4-4.2-166.8V526.8Zm650.99,225.6c16.2-1.2,84-2.4,101.4-2.4,31.8,0,92.4,1.2,99.6,2.4l-1.8-12.6c-18-2.4-35.4-4.8-52.8-8.4-27.6-52.8-64.8-153.6-81.6-199.8-22.8-63-55.8-157.2-63-183.6,13.8-3.6,30-6,45.6-7.8l1.8-12.6c-17.4,1.2-77.4,2.4-102.6,2.4-10.19,0-59.99-1.2-77.99-2.4l0.6,12.6c14.4,1.8,34.2,4.2,47.4,7.8-8.4,22.8-127.8,345.6-149.4,383.394a462.885,462.885,0,0,1-51.6,8.4l-1.8,12.6c13.8-1.2,54-2.4,69.6-2.4,17.4,0,72,1.2,90.6,2.4l-2.4-12.6c-16.8-1.8-36.6-4.2-51.6-8.4,6-46.2,38.4-159.6,42-168,22.2-3.6,117.59-7.8,138.59-7.8,9.6,17.4,52.2,144.6,63,175.8-18.6,4.2-39.6,6.6-60.6,8.4Zm-3.6-214.8-125.99-2.4c6-19.8,45-123.6,63.6-177h1.2C1943.09,391.205,1980.89,498,1994.09,537.6Zm613.2,214.8c17.4-1.2,83.39-2.4,110.99-2.4,28.2,0,64.2,1.2,84.6,2.4l-3-12.6c-10.8-1.8-34.8-4.8-49.8-8.4-10.2-37.8-67.2-315.595-78.6-382.794,12.6-3,42-7.2,50.4-8.4l1.8-12.6c-13.8,1.2-64.2,2.4-83.39,2.4-21,0-61.8-1.2-81-2.4l3,12.6c10.8,1.8,29.4,4.2,40.8,8.4-1.2,13.8-105,262.2-122.4,296.4-18.6-45.6-91.8-241.8-109.2-296.4,11.4-2.4,28.2-6.6,45-8.4l2.4-12.6c-16.8,1.2-64.2,2.4-90,2.4-31.8,0-78.6-1.2-86.4-2.4l3.6,12.6c6.6,1.2,43.2,6,59.4,8.4-9,49.2-74.4,345.6-87.6,383.394-13.2,3.6-32.4,6-42.6,7.8l-4.2,12.6c19.8-1.2,50.4-2.4,66.6-2.4,11.4,0,81,1.2,89.4,2.4l-2.4-12.6c-9-1.2-42.6-6-53.4-8.4-2.4-77.4,33-244.2,48.6-335.995h2.4c7.2,22.8,120,322.2,136.8,359.4,18-34.2,136.2-322.195,152.4-358.795h2.4c7.2,44.4,59.39,314.4,60.59,336.6-12,1.2-57.59,6.6-65.99,7.2Zm453.6,0c16.2-1.2,84-2.4,101.4-2.4,31.79,0,92.39,1.2,99.59,2.4l-1.8-12.6c-18-2.4-35.4-4.8-52.8-8.4-27.59-52.8-64.79-153.6-81.59-199.8-22.8-63-55.8-157.2-63-183.6,13.8-3.6,30-6,45.6-7.8l1.8-12.6c-17.4,1.2-77.4,2.4-102.6,2.4-10.2,0-60-1.2-78-2.4l0.6,12.6c14.4,1.8,34.2,4.2,47.4,7.8-8.4,22.8-127.8,345.6-149.4,383.394a462.885,462.885,0,0,1-51.6,8.4l-1.8,12.6c13.8-1.2,54-2.4,69.6-2.4,17.4,0,72,1.2,90.6,2.4l-2.4-12.6c-16.8-1.8-36.6-4.2-51.6-8.4,6-46.2,38.4-159.6,42-168,22.2-3.6,117.6-7.8,138.6-7.8,9.6,17.4,52.2,144.6,63,175.8-18.6,4.2-39.6,6.6-60.6,8.4Zm-3.6-214.8-126-2.4c6-19.8,45-123.6,63.6-177h1.2C3006.29,391.205,3044.09,498,3057.29,537.6Zm453.59,222c147.6,0,259.2-94.8,259.2-241.8,0-55.8-25.2-114-72.6-148.8-52.2-38.4-102.6-48.6-166.2-48.6-165.6,0-263.4,108-263.4,226.8,0,56.4,13.8,100.2,57.6,145.2C3381.28,749.4,3450.28,759.6,3510.88,759.6Zm29.4-24.6c-117,0-203.4-105.6-203.4-213,0-123.6,90-178.8,172.2-178.8,99.6,0,187.8,91.2,187.8,218.4C3696.88,657.6,3626.08,735,3540.28,735Z"/>
</svg>
