<svg xmlns="http://www.w3.org/2000/svg" xmlns:xlink="http://www.w3.org/1999/xlink" width="1067" height="1067" viewBox="0 0 1067 1067">
  <defs>
    <style>
      .cls-1, .cls-2, .cls-3 {
        fill-rule: evenodd;
      }

      .cls-1 {
        fill: url(#linear-gradient);
      }

      .cls-3 {
        fill: #a0b5e5;
      }
    </style>
    <linearGradient id="linear-gradient" x1="532.235" y1="1004.19" x2="532.235" y2="90.875" gradientUnits="userSpaceOnUse">
      <stop offset="0" stop-color="#fff"/>
      <stop offset="1" stop-color="#NaNNaNNaN"/>
    </linearGradient>
  </defs>
  <path id="渐变填充_7" data-name="渐变填充 7" class="cls-1" d="M506,91c124.668-2.391,213.177,31.534,285,82,72.494,50.938,125.226,114.067,162,201,10.478,24.77,18.023,52.629,26,81,3.383,12.033,3.252,25.327,6,37q0.5,11,1,22c2.855,13.244,4.19,36.847,1,51v16c-2.609,11.488-1.1,24.02-4,36-8.952,36.95-15.234,72.227-29,104C901.972,841.087,814.972,923.691,693,974c-28.34,11.689-59.869,16.239-92,24-13.7,3.31-29.411,1.84-42,5-11.039,2.77-48.58.11-57-2H488c-11.355-2.6-24.183-1.931-36-5-38.415-9.977-71.553-18.782-104-33-98.533-43.177-185.843-125.043-229-223-10.687-24.256-17.221-47.783-26-75C81.018,627.854,68.909,547.322,80,499l3-30c7.837-30.976,13.612-61.546,25-89,48.946-118,132.786-203.307,249-254,29.436-12.84,62.262-19.537,96-28C463.552,95.353,500.06,95.515,506,91Z"/>
  <path id="颜色填充_1" data-name="颜色填充 1" class="cls-2" d="M215,462c6.633-.1,17.09-1.4,22,1,43.552,21.285,45.318,128.116-6,142-10.37,2.806-19.123-2.757-24-6-15.653-10.408-19.694-23.719-25-45-1.794-7.2-5.442-20.209-3-31,3.85-17.019,6.917-32.4,15-45C198.768,470.57,208.2,467.54,215,462Zm590,0c70.5-1.091,66.246,129.7,12,143-12.026,2.949-23.359-6.559-28-12-15.648-18.343-27.854-51.2-19-85,3.5-13.359,10.3-28.4,19-37C793.223,466.827,800.339,465.752,805,462Z"/>
  <path id="damao" class="cls-3" d="M1110.3,554.8c0,69.6-1.2,176.4-4.2,186.6-14.4,4.2-51,7.8-62.39,8.4l-2.4,12.6c14.39-.6,141.59-1.2,175.19-1.2,230.4,0,330-124.2,330-250.8,0-54.6-28.2-111.6-98.4-145.2-39.6-19.2-99-27.6-169.2-27.6-46.2,0-117.6,2.4-138.6,2.4-25.2,0-89.99-1.2-98.99-2.4l1.2,12.6c14.39,1.2,47.99,5.4,63.59,8.4,3,12,4.2,121.8,4.2,148.8v47.4Zm68.4-18c0-26.4,2.4-164.4,4.2-173.4,12.6-2.4,39-3.6,52.8-3.6,55.8,0,127.8,12,171.6,44.4,49.8,37.2,65.4,87.6,65.4,138.6,0,127.8-109.8,195-224.4,195-15.6,0-39-.6-65.4-10.8-2.4-21.6-4.2-134.4-4.2-166.8V536.8Zm650.99,225.6c16.2-1.2,84-2.4,101.4-2.4,31.8,0,92.4,1.2,99.6,2.4l-1.8-12.6c-18-2.4-35.4-4.8-52.8-8.4-27.6-52.8-64.8-153.6-81.6-199.8-22.8-63-55.8-157.2-63-183.6,13.8-3.6,30-6,45.6-7.8l1.8-12.6c-17.4,1.2-77.4,2.4-102.6,2.4-10.19,0-59.99-1.2-77.99-2.4l0.6,12.6c14.4,1.8,34.2,4.2,47.4,7.8-8.4,22.8-127.8,345.6-149.4,383.394a462.885,462.885,0,0,1-51.6,8.4l-1.8,12.6c13.8-1.2,54-2.4,69.6-2.4,17.4,0,72,1.2,90.6,2.4l-2.4-12.6c-16.8-1.8-36.6-4.2-51.6-8.4,6-46.2,38.4-159.6,42-168,22.2-3.6,117.59-7.8,138.59-7.8,9.6,17.4,52.2,144.6,63,175.8-18.6,4.2-39.6,6.6-60.6,8.4Zm-3.6-214.8-125.99-2.4c6-19.8,45-123.6,63.6-177h1.19C1775.09,401.205,1812.89,508,1826.09,547.6Zm613.2,214.8c17.4-1.2,83.39-2.4,110.99-2.4,28.2,0,64.2,1.2,84.6,2.4l-3-12.6c-10.8-1.8-34.8-4.8-49.8-8.4-10.2-37.8-67.2-315.595-78.6-382.794,12.6-3,42-7.2,50.4-8.4l1.8-12.6c-13.8,1.2-64.2,2.4-83.39,2.4-21,0-61.8-1.2-81-2.4l3,12.6c10.8,1.8,29.4,4.2,40.8,8.4-1.2,13.8-105,262.2-122.4,296.4-18.6-45.6-91.8-241.8-109.2-296.4,11.4-2.4,28.2-6.6,45-8.4l2.4-12.6c-16.8,1.2-64.2,2.4-90,2.4-31.8,0-78.6-1.2-86.4-2.4l3.6,12.6c6.6,1.2,43.2,6,59.4,8.4-9,49.2-74.4,345.6-87.6,383.394-13.2,3.6-32.4,6-42.6,7.8l-4.2,12.6c19.8-1.2,50.4-2.4,66.6-2.4,11.4,0,81,1.2,89.4,2.4l-2.4-12.6c-9-1.2-42.6-6-53.4-8.4-2.4-77.4,33-244.2,48.6-335.995h2.4c7.2,22.8,120,322.2,136.8,359.4,18-34.2,136.2-322.195,152.4-358.795h2.4c7.2,44.4,59.39,314.4,60.59,336.6-12,1.2-57.59,6.6-65.99,7.2Zm453.6,0c16.2-1.2,84-2.4,101.4-2.4,31.79,0,92.39,1.2,99.59,2.4l-1.8-12.6c-18-2.4-35.4-4.8-52.8-8.4-27.6-52.8-64.79-153.6-81.59-199.8-22.8-63-55.8-157.2-63-183.6,13.8-3.6,30-6,45.6-7.8l1.8-12.6c-17.4,1.2-77.4,2.4-102.6,2.4-10.2,0-60-1.2-78-2.4l0.6,12.6c14.4,1.8,34.2,4.2,47.4,7.8-8.4,22.8-127.8,345.6-149.4,383.394a462.885,462.885,0,0,1-51.6,8.4l-1.8,12.6c13.8-1.2,54-2.4,69.6-2.4,17.4,0,72,1.2,90.6,2.4l-2.4-12.6c-16.8-1.8-36.6-4.2-51.6-8.4,6-46.2,38.4-159.6,42-168,22.2-3.6,117.6-7.8,138.6-7.8,9.6,17.4,52.2,144.6,63,175.8-18.6,4.2-39.6,6.6-60.6,8.4Zm-3.6-214.8-126-2.4c6-19.8,45-123.6,63.6-177h1.2C2838.29,401.205,2876.09,508,2889.29,547.6Zm453.59,222c147.6,0,259.2-94.8,259.2-241.8,0-55.8-25.2-114-72.6-148.8-52.2-38.4-102.6-48.6-166.2-48.6-165.6,0-263.4,108-263.4,226.8,0,56.4,13.8,100.2,57.6,145.2C3213.28,759.4,3282.28,769.6,3342.88,769.6Zm29.4-24.6c-117,0-203.4-105.6-203.4-213,0-123.6,90-178.8,172.2-178.8,99.6,0,187.8,91.2,187.8,218.4C3528.88,667.6,3458.08,745,3372.28,745Z"/>
</svg>
