<svg id="Layer_3" enable-background="new 0 0 64 64" height="512" viewBox="0 0 64 64" width="512" xmlns="http://www.w3.org/2000/svg"><circle cx="55" cy="37" r="1"/><circle cx="60" cy="37" r="1"/><path d="m44 1c0-.553-.447-1-1-1h-11c-.553 0-1 .447-1 1s.447 1 1 1h11c.553 0 1-.447 1-1z"/><path d="m22 7h-4c-.553 0-1 .447-1 1v4c0 .553.447 1 1 1h4 3.586l5.707 5.707c.195.195.451.293.707.293s.512-.098.707-.293c.391-.391.391-1.023 0-1.414l-6-6c-.187-.188-.441-.293-.707-.293h-3v-3c0-.553-.447-1-1-1zm-3 2h2v2h-2z"/><path d="m41 5c0-.553-.447-1-1-1h-8c-.553 0-1 .447-1 1s.447 1 1 1h8c.553 0 1-.447 1-1z"/><path d="m37 9c0-.553-.447-1-1-1h-4c-.553 0-1 .447-1 1s.447 1 1 1h4c.553 0 1-.447 1-1z"/><path d="m60 33h-5c-2.206 0-4 1.794-4 4 0 1.439.771 2.693 1.914 3.397l-8.01 1.602c-3.759-.059-3.9-3.597-3.904-3.999v-3c0-.552.448-1 1-1 .553 0 1-.447 1-1v-3c0-.029-.014-.053-.016-.082.591-.307 1.156-.7 1.644-1.223 1.285-1.376 1.796-3.289 1.535-5.692h3.022c3.207.096 5.815 2.918 5.815 6.291v.706c0 .553.447 1 1 1s1-.447 1-1v-.706c0-.345-.028-.683-.069-1.018.543.178 1.094.266 1.636.266 2.559 0 4.894-1.643 5.014-1.729.239-.171.392-.438.416-.731.023-.293-.082-.581-.29-.789-3.074-3.074-9.411-3.285-9.679-3.293-.323.004-.557.121-.744.323-1.185-.79-2.575-1.275-4.07-1.32h-35.132c-1.967 0-3.898.522-5.587 1.51-.477.279-.637.892-.358 1.368.279.478.894.636 1.368.358 1.383-.809 2.965-1.236 4.577-1.236h26.408c-1.975 1.355-3.905 3.514-3.977 6.814-.011.511.365.947.872 1.014.057.007.502.062 1.166.062.656 0 1.529-.063 2.448-.267v1.559c-1.161.414-2 1.514-2 2.816v3c0 2.075 1.254 6 6 6 .065 0 .132-.007.196-.02l15-3h.001c2.114-.106 3.804-1.843 3.804-3.981 0-2.206-1.794-4-4-4zm1.208-7.136c-1.017.477-2.495.955-3.752.491-.86-.316-1.544-1.065-2.039-2.233 1.541.186 4.001.641 5.791 1.742zm-17.019-2.539c.171 1.745-.17 3.088-1.019 4-1.239 1.333-3.332 1.559-4.556 1.565.618-3.229 3.866-4.899 5.575-5.565zm15.811 15.675h-5c-1.103 0-2-.897-2-2s.897-2 2-2h5c1.103 0 2 .897 2 2s-.897 2-2 2z"/><path d="m52 30v1c0 .553.447 1 1 1s1-.447 1-1v-1c0-.553-.447-1-1-1s-1 .447-1 1z"/><path d="m46 30v1c0 .553.447 1 1 1s1-.447 1-1v-1c0-.553-.447-1-1-1s-1 .447-1 1z"/><path d="m18.75 48c2.895 0 5.25-2.355 5.25-5.25v-3.75c0-.553-.447-1-1-1s-1 .447-1 1v3.75c0 1.792-1.458 3.25-3.25 3.25h-3.028c-1.473 0-2.863.645-3.814 1.768-.952 1.124-1.359 2.602-1.117 4.054l.224 1.343c.007.042.017.083.028.123l1.113 3.712h-1.156-2.987l-.981-5.889 1.08-2.699c.614-1.535.664-3.245.141-4.813-.04-.12-.103-.231-.184-.328-1.979-2.346-3.069-5.327-3.069-8.394v-2.792c0-1.999.636-3.894 1.84-5.48.334-.44.247-1.067-.192-1.401-.006-.005-.014-.005-.02-.01-1.099-1.27-2.334-3.134-2.756-4.599.914.262 1.972.405 3.128.405 3.218 0 6.68-.851 6.68-2.718 0-.879-.694-1.505-2.064-1.86-1.079-.28-2.632-.422-4.616-.422-2.16 0-3.676.5-4.52 1.487-.05-.09-.081-.178-.095-.261-.08-.492.46-1.194 1.788-1.824 1.102.394 2.386.598 3.827.598 1.31 0 2.255-.439 2.594-1.205.232-.524.127-1.126-.275-1.568-.898-.987-3.004-1.052-5.635-.175-.168.056-.33.113-.486.172-.979-.493-1.83-1.284-2.249-2.54-.175-.523-.737-.809-1.265-.632-.523.174-.807.74-.632 1.265.405 1.216 1.104 2.212 2.064 2.968-1.766 1.246-1.811 2.614-1.705 3.263.128.788.593 1.478 1.319 2.029-.033 2.416 2.032 5.27 3.035 6.509-1.156 1.786-1.765 3.843-1.765 5.999v2.792c0 3.471 1.209 6.846 3.41 9.526.314 1.072.262 2.226-.155 3.267l-1.184 2.959c-.067.17-.088.354-.058.535l2 12c.081.482.498.836.987.836h7c.316 0 .613-.149.803-.403.188-.253.246-.581.155-.884l-1.114-3.713h3.156c.281 0 .549-.118.738-.325.189-.208.283-.485.258-.766l-.901-9.909zm-11.75-30c2.25 0 3.48.191 4.13.363-.74.297-2.115.637-4.13.637-1.154 0-2.088-.155-2.806-.388.68-.522 1.989-.612 2.806-.612zm5 44v-1c0-.553-.447-1-1-1s-1 .447-1 1v1h-1.153l-.5-3h2.653 1.756l.9 3zm4-5v-1c0-.553-.447-1-1-1s-1 .447-1 1v.188l-.656-2.188h3.289l.273 3zm.45-5h-3.603l-.084-.507c-.146-.872.099-1.758.67-2.433.571-.673 1.405-1.06 2.289-1.06h.365z"/><path d="m51.333 43.121c-1.394 1.247-2.852 1.879-4.333 1.879h-1c-.285 0-.558.122-.747.336-.19.213-.279.497-.246.781l1.28 10.883h-2.287-2c-.151 0-.291.039-.419.099l-.584-8.17c-.037-.524-.473-.929-.997-.929-3.036 0-4.001-6.081-4.01-6.143-.079-.546-.577-.93-1.133-.847-.546.078-.926.584-.848 1.131.035.241.685 4.553 3.046 6.684-4.566 1.484-10.199.452-14.342-.783-.531-.159-1.086.144-1.243.673-.158.529.144 1.086.673 1.243 2.836.846 6.338 1.598 9.819 1.598 2.466 0 4.918-.385 7.12-1.374l.921 12.89c.037.523.473.928.997.928h7c.285 0 .558-.122.747-.336.19-.213.279-.497.246-.781l-.457-3.883h2.464c.279 0 .547-.117.736-.323.188-.205.283-.481.26-.76l-1-12c-.002-.023-.015-.042-.018-.065.575-.341 1.139-.749 1.689-1.241.411-.368.446-1 .078-1.412-.368-.411-.999-.446-1.412-.078zm-5.333 18.879v-1c0-.553-.447-1-1-1s-1 .447-1 1v1h-2.069l-.218-3.058c.092.028.185.058.287.058h2 2.522l.353 3zm2.301-5-.353-3h1.715l.25 3zm1.196-5h-1.784l-.589-5.001c.654-.011 1.297-.117 1.931-.301z"/></svg>