<?xml version="1.0" encoding="utf-8"?>
<!-- Generator: Adobe Illustrator 23.0.1, SVG Export Plug-In . SVG Version: 6.00 Build 0)  -->
<svg version="1.1" xmlns="http://www.w3.org/2000/svg" xmlns:xlink="http://www.w3.org/1999/xlink" x="0px" y="0px"
	 viewBox="0 0 2850 1800" enable-background="new 0 0 2850 1800" xml:space="preserve" width="2850px" 
   	 height="1800px">
<g id="Layer_1_1_">
	<linearGradient id="SVGID_1_" gradientUnits="userSpaceOnUse" x1="0" y1="900" x2="2850" y2="900">
		<stop  offset="0" style="stop-color:#FFD2B4"/>
		<stop  offset="0.9983" style="stop-color:#FFF9D4"/>
	</linearGradient>
	<rect y="0" fill="url(#SVGID_1_)" width="2850" height="1800"/>
	<path opacity="0.52" fill="#F8FEFF" d="M2798.198,643.157c-5.694,1.763-28.47-4.408-39.859-22.921
		c-11.388-18.513-47.831-37.027-76.302-43.354c-28.471-6.327-66.053,6.327-78.58,26.604c-12.527,20.277,9.111,51.132-3.417,47.606
		c-12.527-3.526-25.071-25.592-58.08-12.342c-30.749,12.342-7.971,33.501-17.083,37.027c-9.11,3.527-46.49-15.747-71.746-13.224
		c-35.304,3.527-50.49,28.463-45.935,39.042c4.555,10.579-10.19,22.77-26.134,14.836c-15.944-7.934-16.76-14.206-34.982-14.206
		c-18.221,0-30.179,14.546-26.193,23.803c1.836,4.265-14.236,7.053-21.638,2.645c-3.83-2.281-12.527-10.579-28.471-9.698
		s-13.666,17.632-21.638,15.869c-7.972-1.763-22.697-0.642-25.054,6.171c-7.972,23.038,58.08,17.632,77.441,17.69
		c19.36,0.059,124.133-7.992,145.771-5.348s251.682,14.105,291.541,9.697c13.455-1.488,58.459-1.971,112.16-1.958V612.503
		C2812.261,611.899,2803.652,641.468,2798.198,643.157z"/>
	<path opacity="0.52" fill="#F8FEFF" d="M1789.599,735.526c0,0-270.019-3.306-304.014,0c-33.995,3.306-230.196-5.29-248.651-7.273
		c-18.454-1.984-107.813,4.055-124.325,4.011s-72.847,4.011-66.048-13.268c2.011-5.11,14.569-5.951,21.369-4.628
		c6.799,1.322,4.856-11.24,18.454-11.901s21.016,5.562,24.282,7.273c6.313,3.306,20.021,1.215,18.455-1.984
		c-3.399-6.943,6.799-17.852,22.34-17.852s16.237,4.704,29.835,10.655c13.598,5.951,26.174-3.193,22.289-11.127
		c-3.885-7.934,9.067-26.636,39.177-29.281c21.54-1.892,53.421,12.563,61.191,9.918c7.77-2.645-11.656-18.514,14.569-27.77
		c28.152-9.937,38.851,6.612,49.536,9.257c10.684,2.645-7.771-20.497,2.914-35.705c10.685-15.208,42.737-24.698,67.019-19.953
		c24.282,4.745,55.364,18.63,65.077,32.515c9.713,13.885,29.139,18.514,33.995,17.191c4.857-1.322,12.627-25.456,48.565-22.811
		s40.794,16.861,40.794,16.861s3.399-14.877,28.653-16.861s47.094,2.047,65.562,11.571c16.027,8.265,18.455,22.481,29.139,19.836
		c10.684-2.645,11.713-13.073,28.168-14.216c23.796-1.653,39.823,14.28,36.909,25.488c-2.914,11.208,8.741-0.693,17.483-3.999
		c8.742-3.306,33.995,4.628,26.225,17.191c-7.77,12.563,8.966,16.089,17.483,11.901c17.483-8.595,42.251-5.62,57.306,12.563
		c11.846,14.308,33.995,6.612,33.995,6.612s37.88-5.289,49.536,9.918c11.655,15.208,0,16.618,0,16.618L1789.599,735.526z"/>
	<path opacity="0.52" fill="#F8FEFF" d="M2381.797,326.081c0,0-396.543-6.52-446.468,0c-49.924,6.52-338.06-10.433-365.162-14.345
		c-27.102-3.912-158.332,7.997-182.581,7.911c-24.249-0.087-106.981,7.911-96.996-26.168c2.953-10.077,21.396-11.737,31.381-9.128
		c9.985,2.608,7.132-22.169,27.102-23.474c19.97-1.304,30.864,10.971,35.66,14.345c9.272,6.52,29.402,2.396,27.102-3.912
		c-4.993-13.693,9.985-35.21,32.807-35.21c22.823,0,23.846,9.277,43.815,21.014c19.97,11.737,38.438-6.297,32.733-21.946
		c-5.706-15.649,13.316-52.535,57.535-57.751c31.634-3.732,78.453,24.777,89.864,19.561c11.411-5.216-17.117-36.514,21.396-54.771
		c41.344-19.599,57.057,13.041,72.747,18.257c15.691,5.216-11.411-40.426,4.279-70.42c15.691-29.994,62.762-48.712,98.423-39.353
		c35.66,9.359,81.305,36.744,95.57,64.13c14.264,27.385,42.792,36.514,49.925,33.906c7.132-2.608,18.543-50.207,71.321-44.991
		c52.777,5.216,59.909,33.254,59.909,33.254s4.992-29.342,42.079-33.254c37.087-3.912,69.162,4.037,96.283,22.821
		c23.536,16.301,27.102,44.338,42.792,39.122c15.691-5.216,17.2-25.783,41.366-28.038c34.947-3.26,58.483,28.164,54.204,50.27
		c-4.279,22.106,12.838-1.367,25.675-7.887c12.838-6.52,49.925,9.128,38.513,33.906c-11.411,24.777,13.167,31.732,25.676,23.474
		c25.675-16.953,62.049-11.085,84.158,24.777c17.397,28.219,49.924,13.041,49.924,13.041s55.63-10.433,72.747,19.561
		c17.117,29.994,0,32.774,0,32.774L2381.797,326.081z"/>
	<path opacity="0.52" fill="#F8FEFF" d="M923.294,388.546c-15.852-27.777-67.37-18.115-67.37-18.115s-30.123,14.056-46.235-12.077
		c-20.475-33.212-54.161-38.646-77.938-22.946c-11.583,7.648-34.345,1.208-23.778-21.738c10.568-22.946-23.778-37.439-35.667-31.4
		c-11.889,6.039-27.741,27.777-23.778,7.305c3.963-20.472-17.833-49.574-50.197-46.555c-22.38,2.088-23.778,21.134-38.309,25.965
		c-14.531,4.831-17.833-21.134-39.63-36.231c-25.117-17.396-54.821-24.758-89.167-21.134c-34.346,3.623-38.969,30.796-38.969,30.796
		s-6.605-25.965-55.481-30.796c-48.877-4.831-59.444,39.25-66.05,41.665c-6.605,2.416-33.025-6.039-46.235-31.4
		c-13.21-25.362-55.481-50.723-88.506-59.39c-33.025-8.667-76.617,8.667-91.148,36.444s10.568,70.046-3.963,65.215
		c-10.567-3.513-21.154-20.44-40.863-22.442v171.622c82.257,4.233,175.155,7.534,200.703,4.197c46.235-6.038,413.469,0,413.469,0
		l309.111,1.368C923.294,418.899,939.145,416.323,923.294,388.546z"/>
</g>
<g id="Layer_2">
	<polygon fill="#FFE8B0" points="2038.953,1369.343 2457.466,1030.968 2669.365,1231.766 2704.972,1195.401 2850,1279.19 
		2850,1478.758 2193.978,1478.758 	"/>
	<path fill="#E9EEFF" d="M1708.819,1012.777c1.586-2.124-301.525-203.422-301.525-203.422l-138.542,101.711l260.524,368.212
		L1708.819,1012.777z"/>
	<polygon fill="#FFDE8C" points="1459.966,1146.822 1822.671,812.826 2129.353,1175.903 2167.099,1161.938 2336.953,1334.167 
		2459.626,1245.725 2704.972,1520.72 1365.007,1520.72 	"/>
	<polygon fill="#FFAF54" points="2129.353,1175.903 2196.811,1279.279 2167.099,1161.938 	"/>
	<polygon fill="#FFAF54" points="2336.953,1334.167 2459.626,1245.725 2459.626,1361.452 2434.787,1388.806 2485.392,1462.085 
		2469.589,1462.832 	"/>
	<path fill="#FFAF54" d="M1738.606,1125.787l108.782-153.713c0,0-25.261-153.119-24.717-159.247l-362.705,333.995l-94.959,373.898
		h380.196l42.862-241.441L1738.606,1125.787z"/>
	<polygon fill="#FFE8B0" points="516.307,925.466 175.543,764.052 0,925.466 0,1452.246 177.493,1421.171 569.369,951.5 	"/>
	<g>
		<polygon fill="#FFDE8C" points="1129.319,408.451 2146.709,1434.835 969.243,1433.511 736.646,1218.749 		"/>
		<polygon fill="#FFAF54" points="1129.319,408.451 348.756,1109.663 306.564,1074.754 0,1336.738 0,1474.422 1009.774,1439.138 
			851.552,1290.782 939.452,1202.288 907.808,1152.836 1009.774,1079.959 911.324,952.425 1104.677,718.851 		"/>
		<polygon fill="#FFAF54" points="2066.46,1419.215 1421.809,1044.317 1744.135,1419.215 		"/>
		<path fill="#FFAF54" d="M1464.785,1434.835c0-7.81-190.325-161.414-190.325-161.414l-30.698,13.017l-122.79-119.759
			l-270.139,268.156H1464.785z"/>
	</g>
	<linearGradient id="SVGID_2_" gradientUnits="userSpaceOnUse" x1="1242.2443" y1="1338.3274" x2="1260.8373" y2="1686.9474">
		<stop  offset="0" style="stop-color:#FFDF9E"/>
		<stop  offset="1" style="stop-color:#DE9A24"/>
	</linearGradient>
	<path fill="url(#SVGID_2_)" d="M0,1452.443c0,0,588.076-108.47,770.681-129.914c182.606-21.444,473.283-24.384,804.954,0
		c331.671,24.384,863.094,176.475,937.627,225.244c74.533,48.768-2513.238,148.619-2513.238,148.619L0,1452.443z"/>
	<linearGradient id="SVGID_3_" gradientUnits="userSpaceOnUse" x1="1423.0923" y1="1555.4269" x2="1429.0374" y2="1817.0098">
		<stop  offset="0" style="stop-color:#FFDF9E"/>
		<stop  offset="1" style="stop-color:#DE9A24"/>
	</linearGradient>
	<path fill="url(#SVGID_3_)" d="M582.74,1577.689c191.838-57.276,591.283-119.759,699.028-114.552
		c107.745,5.207,383.677,80.707,546.608,93.724c18.281,1.46,39.325,1.462,62.388,0.323c49.073-2.423,107.358-10.05,168.044-19.993
		c164.997-27.035,347.669-71.177,410.78-74.359c97.233-4.903,380.411,15.926,380.411,15.926v321.221l-2206.824,0.306L0,1799.979
		l0-152.908l0-27.701C0,1619.37,390.901,1634.965,582.74,1577.689z"/>
	<g>
		<g>
			<path fill="#3CA35D" d="M2381.209,1523.656l-6.024,10.668c0,0-3.399-4.845-2.217-6.42
				C2374.151,1526.331,2381.209,1523.656,2381.209,1523.656z"/>
		</g>
		<g>
			<path fill="#3CA35D" d="M2306.781,1543.193l6.136,10.604c0,0-5.899,0.471-6.657-1.348
				C2305.505,1550.632,2306.781,1543.193,2306.781,1543.193z"/>
		</g>
		<g>
			<path fill="#3CA35D" d="M2334.294,1538.184l10.492-6.133c0,0-2.331,7.315-4.69,9.417
				C2337.736,1543.57,2329.115,1541.208,2334.294,1538.184z"/>
		</g>
		<g>
			<path fill="#3CA35D" d="M2182.187,1474.094l-7.66-9.786c0,0-1.664,3.356,1.41,7.678
				C2178.844,1476.073,2180.504,1475.458,2182.187,1474.094z"/>
		</g>
		<g>
			<path fill="#3CA35D" d="M2188.942,1505.344c0,0,4.682,8.645,5.718,9.588c1.037,0.943-6.265,0.262-7.283-2.703
				C2186.359,1509.265,2188.528,1508.533,2188.942,1505.344z"/>
		</g>
		<g>
			<g>
				<g>
					
						<rect x="2309.882" y="1458.378" transform="matrix(0.038 -0.9993 0.9993 0.038 789.35 3738.584)" fill="#3CA35D" width="52.866" height="1.927"/>
				</g>
			</g>
			<g>
				<g>
					<path fill="#3CA35D" d="M2313.476,1568.043l-1.816-0.63l36.048-129.889l1.855,0.514l-31.97,115.198
						c17.268-41.214,42.492-101.526,43.053-103.289l1.863,0.488C2362.153,1451.921,2318.458,1556.161,2313.476,1568.043z"/>
				</g>
			</g>
			<g>
				<g>
					
						<rect x="2337.999" y="1465.974" transform="matrix(0.1366 -0.9906 0.9906 0.1366 576.7685 3595.6245)" fill="#3CA35D" width="26.182" height="1.926"/>
				</g>
			</g>
			<g>
				<g>
					
						<rect x="2319.28" y="1488.623" transform="matrix(0.5991 -0.8007 0.8007 0.5991 -248.6841 2482.5139)" fill="#3CA35D" width="70.693" height="1.926"/>
				</g>
			</g>
			<g>
				<g>
					<path fill="#3CA35D" d="M2322.15,1546.999l-1.154-1.544c3.938-2.946,64.776-63.68,66.424-66.311l0.783,0.49l0.67-0.846
						l0.37,0.783C2389.216,1481.679,2322.819,1546.498,2322.15,1546.999z"/>
				</g>
			</g>
			<g>
				<g>
					
						<rect x="2303.433" y="1528.642" transform="matrix(0.6771 -0.7359 0.7359 0.6771 -364.5118 2228.4709)" fill="#3CA35D" width="107.41" height="1.927"/>
				</g>
			</g>
			<g>
				<g>
					
						<rect x="2336.134" y="1538.199" transform="matrix(0.9189 -0.3946 0.3946 0.9189 -415.4434 1057.8896)" fill="#3CA35D" width="57.149" height="1.927"/>
				</g>
			</g>
			<g>
				<g>
					<polygon fill="#3CA35D" points="2299.612,1568.533 2297.686,1568.574 2296.808,1528.333 2314.43,1425.914 2316.329,1426.242 
						2298.72,1528.477 					"/>
				</g>
			</g>
			<g>
				<g>
					<path fill="#3CA35D" d="M2299.056,1532.024l-1.892,0.364c-21.709-112.873-21.403-113.32-21.108-113.753l0.796,0.543
						l0.177,0.944l-0.175-0.947l0.956,0.025C2277.927,1421.673,2291.759,1494.082,2299.056,1532.024z"/>
				</g>
			</g>
			<g>
				<g>
					<polygon fill="#3CA35D" points="2298.404,1524.613 2296.48,1524.484 2299.955,1472.04 2304.478,1420.707 2306.398,1420.875 
						2301.875,1472.189 					"/>
				</g>
			</g>
			<g>
				<g>
					
						<rect x="2292.275" y="1417.235" transform="matrix(0.955 -0.2966 0.2966 0.955 -325.0913 745.2095)" fill="#3CA35D" width="1.926" height="53.37"/>
				</g>
			</g>
			<g>
				<g>
					
						<rect x="2298.231" y="1448.194" transform="matrix(0.5247 -0.8513 0.8513 0.5247 -131.1805 2663.374)" fill="#3CA35D" width="42.382" height="1.926"/>
				</g>
			</g>
			<g>
				<g>
					
						<rect x="2323.358" y="1451.372" transform="matrix(1 -0.0029 0.0029 1 -4.2433 6.6497)" fill="#3CA35D" width="1.926" height="72.985"/>
				</g>
			</g>
			<g>
				<g>
					
						<rect x="2311.093" y="1515.781" transform="matrix(0.9962 -0.0874 0.0874 0.9962 -125.7465 207.9789)" fill="#3CA35D" width="1.926" height="48.236"/>
				</g>
			</g>
			<g>
				<g>
					
						<rect x="2192.692" y="1494.742" transform="matrix(0.0153 -0.9999 0.9999 0.0153 738.3624 3741.1614)" fill="#3CA35D" width="151.842" height="1.927"/>
				</g>
			</g>
			<g>
				<g>
					<path fill="#3CA35D" d="M2281.561,1570.511l-1.924-0.089c2.47-52.871,4.537-80.187,6.142-81.194l0.968-0.079l-0.757,1.773
						c0.488,0.206,0.944-0.084,1.049-0.297C2285.627,1493.42,2282.99,1539.932,2281.561,1570.511z"/>
				</g>
			</g>
			<g>
				<g>
					
						<rect x="2250.43" y="1441.835" transform="matrix(0.8732 -0.4874 0.4874 0.8732 -424.2874 1282.0116)" fill="#3CA35D" width="1.927" height="28.979"/>
				</g>
			</g>
			<g>
				<g>
					
						<rect x="2277.085" y="1469.948" transform="matrix(0.9954 -0.0953 0.0953 0.9954 -133.5802 223.9734)" fill="#3CA35D" width="1.927" height="81.053"/>
				</g>
			</g>
			<g>
				<g>
					<polygon fill="#3CA35D" points="2250.039,1581.149 2246.035,1518.206 2247.957,1518.084 2250.945,1565.046 2260.96,1508.686 
						2253.155,1419.398 2255.073,1419.229 2262.878,1508.897 					"/>
				</g>
			</g>
			<g>
				<g>
					
						<rect x="2205.103" y="1508.413" transform="matrix(0.2361 -0.9717 0.9717 0.2361 247.0328 3333.0049)" fill="#3CA35D" width="76.789" height="1.925"/>
				</g>
			</g>
			<g>
				<g>
					<polygon fill="#3CA35D" points="2236.056,1580.937 2216.497,1520.588 2216.486,1520.489 2206.633,1429.447 2208.548,1429.24 
						2218.39,1520.184 2233.879,1567.972 2231.042,1421.264 2232.969,1421.227 					"/>
				</g>
			</g>
			<g>
				<g>
					
						<rect x="2201.891" y="1436.357" transform="matrix(0.9204 -0.391 0.391 0.9204 -396.8423 977.9059)" fill="#3CA35D" width="1.927" height="54.107"/>
				</g>
			</g>
			<g>
				<g>
					
						<rect x="2225.929" y="1427.15" transform="matrix(0.9871 -0.1599 0.1599 0.9871 -206.4701 375.0614)" fill="#3CA35D" width="1.925" height="86.217"/>
				</g>
			</g>
			<g>
				<g>
					<path fill="#3CA35D" d="M2222.799,1575.833c-11.792-26.424-31.589-70.916-31.685-72.016l1.92-0.165l-0.96,0.083l0.937-0.215
						c0.576,1.978,22.968,52.305,31.547,71.53L2222.799,1575.833z"/>
				</g>
			</g>
			<g>
				<g>
					
						<rect x="2205.038" y="1443.216" transform="matrix(0.9506 -0.3104 0.3104 0.9506 -359.7867 759.2702)" fill="#3CA35D" width="1.927" height="133.992"/>
				</g>
			</g>
			<g>
				<g>
					
						<rect x="2206.113" y="1539.467" transform="matrix(0.6393 -0.7689 0.7689 0.6393 -399.1272 2257.7058)" fill="#3CA35D" width="1.926" height="29.684"/>
				</g>
			</g>
			<g>
				<g>
					<path fill="#3CA35D" d="M2367.524,1476.824l10.492-6.133c0,0-2.331,7.315-4.69,9.417
						C2370.966,1482.209,2362.345,1479.847,2367.524,1476.824z"/>
				</g>
			</g>
			<g>
				<g>
					<path fill="#3CA35D" d="M2269.782,1450.464l8.545-4.996c0,0-1.898,5.958-3.82,7.669
						C2272.585,1454.848,2265.564,1452.925,2269.782,1450.464z"/>
				</g>
			</g>
			<g>
				<g>
					<path fill="#3CA35D" d="M2284.708,1511.991l5.822-8.005c0,0,0.652,6.218-0.422,8.556
						C2289.033,1514.881,2281.83,1515.937,2284.708,1511.991z"/>
				</g>
			</g>
			<g>
				<g>
					<path fill="#3CA35D" d="M2246.176,1448.734l-7.661-9.786c0,0-1.663,3.356,1.411,7.678
						C2242.833,1450.712,2244.493,1450.098,2246.176,1448.734z"/>
				</g>
			</g>
			<g>
				<g>
					<path fill="#3CA35D" d="M2225.894,1480.217l-7.661-9.786c0,0-1.663,3.356,1.411,7.678
						C2222.552,1482.197,2224.211,1481.581,2225.894,1480.217z"/>
				</g>
			</g>
			<g>
				<g>
					<path fill="#3CA35D" d="M2243.413,1483.067l2.046,14.078c0,0-7.14-2.035-7.335-6.15
						C2237.928,1486.882,2243.413,1483.067,2243.413,1483.067z"/>
				</g>
			</g>
			<g>
				<g>
					<path fill="#3CA35D" d="M2320.396,1462.262c0,0,1.978,12.724,2.842,14.341c0.865,1.618-7.844-2.429-7.797-6.534
						C2315.487,1465.964,2318.483,1466.013,2320.396,1462.262z"/>
				</g>
			</g>
			<g>
				<g>
					<path fill="#3CA35D" d="M2318.303,1492.642c0,0,4.166,12.185,5.299,13.628c1.134,1.442-8.148-1.026-8.818-5.076
						C2314.115,1497.144,2317.074,1496.67,2318.303,1492.642z"/>
				</g>
			</g>
			<g>
				<g>
					<path fill="#3CA35D" d="M2383.403,1505.83c0,0-7.405,5.091-8.64,5.428c-1.235,0.335,4.992,2.815,7.05,0.827
						C2383.875,1510.096,2382.414,1508.596,2383.403,1505.83z"/>
				</g>
			</g>
			<g>
				<g>
					<path fill="#3CA35D" d="M2297.688,1465.658c0,0,0.945,8.936,1.492,10.094c0.548,1.156-5.384-1.962-5.211-4.82
						C2294.14,1468.071,2296.229,1468.207,2297.688,1465.658z"/>
				</g>
			</g>
			<g>
				<g>
					<path fill="#3CA35D" d="M2290.062,1529.653c0,0-4.117,7.989-5.046,8.869c-0.93,0.88,5.729,0.121,6.603-2.605
						C2292.495,1533.189,2290.499,1532.56,2290.062,1529.653z"/>
				</g>
			</g>
			<g>
				<g>
					<path fill="#3CA35D" d="M2356.984,1441.984c0,0-7.405,5.091-8.64,5.429c-1.235,0.335,4.991,2.815,7.05,0.827
						C2357.457,1446.25,2355.995,1444.75,2356.984,1441.984z"/>
				</g>
			</g>
			<g>
				<g>
					<path fill="#3CA35D" d="M2296.124,1426.255c0,0-1.075,8.923-1.639,10.072c-0.564,1.148,5.412-1.886,5.282-4.744
						C2299.636,1428.721,2297.546,1428.827,2296.124,1426.255z"/>
				</g>
			</g>
			<g>
				<g>
					<path fill="#3CA35D" d="M2255.642,1508.137c0,0,3.18,9.303,4.046,10.405c0.865,1.1-6.222-0.783-6.733-3.876
						C2252.443,1511.575,2254.704,1511.213,2255.642,1508.137z"/>
				</g>
			</g>
			<g>
				<g>
					<path fill="#3CA35D" d="M2209.697,1488.961c0,0,3.365,6.214,4.111,6.892c0.745,0.678-4.503,0.188-5.234-1.942
						C2207.842,1491.78,2209.4,1491.254,2209.697,1488.961z"/>
				</g>
			</g>
			<g>
				<g>
					<path fill="#3CA35D" d="M2203.179,1438.629c0,0,3.487,6.438,4.259,7.142c0.773,0.702-4.666,0.195-5.426-2.014
						C2201.255,1441.547,2202.869,1441.003,2203.179,1438.629z"/>
				</g>
			</g>
			<g>
				<g>
					<path fill="#3CA35D" d="M2280.345,1554.01c0,0-4.226-7.688-3.89-11.983c0.335-4.297-5.748,4.735-3.005,9.013
						C2276.194,1555.321,2279.169,1554.114,2280.345,1554.01z"/>
				</g>
			</g>
			<g>
				<g>
					<path fill="#3CA35D" d="M2233.899,1530.364c0,0-5.467-6.862-5.863-11.151c-0.398-4.292-4.864,5.639-1.437,9.391
						C2230.029,1532.359,2232.758,1530.666,2233.899,1530.364z"/>
				</g>
			</g>
			<g>
				<g>
					
						<rect x="2191.534" y="1448.346" transform="matrix(0.8884 -0.459 0.459 0.8884 -439.7016 1172.7665)" fill="#3CA35D" width="1.926" height="84.983"/>
				</g>
			</g>
			<g>
				<g>
					
						<rect x="2182.396" y="1456.253" transform="matrix(0.8687 -0.4953 0.4953 0.8687 -460.7986 1279.5925)" fill="#3CA35D" width="1.926" height="105.54"/>
				</g>
			</g>
			<g>
				<g>
					
						<rect x="2335.983" y="1555.28" transform="matrix(0.9355 -0.3534 0.3534 0.9355 -397.4749 935.5026)" fill="#3CA35D" width="54.342" height="1.927"/>
				</g>
			</g>
		</g>
	</g>
	<g>
		<g>
			<path fill="#3CA35D" d="M953.347,1500.484l-4.912,8.698c0,0-2.772-3.95-1.808-5.235
				C947.592,1502.665,953.347,1500.484,953.347,1500.484z"/>
		</g>
		<g>
			<path fill="#3CA35D" d="M892.658,1516.414l5.004,8.646c0,0-4.81,0.384-5.428-1.099
				C891.618,1522.48,892.658,1516.414,892.658,1516.414z"/>
		</g>
		<g>
			<path fill="#3CA35D" d="M915.092,1512.33l8.555-5c0,0-1.901,5.964-3.824,7.678
				C917.899,1516.721,910.869,1514.795,915.092,1512.33z"/>
		</g>
		<g>
			<path fill="#3CA35D" d="M791.064,1460.071l-6.247-7.98c0,0-1.356,2.736,1.15,6.261
				C788.339,1461.684,789.692,1461.183,791.064,1460.071z"/>
		</g>
		<g>
			<path fill="#3CA35D" d="M796.573,1485.552c0,0,3.818,7.049,4.663,7.818c0.845,0.768-5.108,0.214-5.938-2.204
				C794.466,1488.749,796.235,1488.152,796.573,1485.552z"/>
		</g>
		<g>
			<g>
				<g>
					
						<rect x="895.187" y="1447.256" transform="matrix(0.038 -0.9993 0.9993 0.038 -565.1255 2309.0364)" fill="#3CA35D" width="43.107" height="1.572"/>
				</g>
			</g>
			<g>
				<g>
					<path fill="#3CA35D" d="M898.118,1536.677l-1.481-0.514l29.393-105.911l1.513,0.42l-26.069,93.932
						c14.08-33.605,34.648-82.784,35.105-84.222l1.519,0.398C937.809,1441.991,902.179,1526.989,898.118,1536.677z"/>
				</g>
			</g>
			<g>
				<g>
					
						<rect x="918.113" y="1453.45" transform="matrix(0.1365 -0.9906 0.9906 0.1365 -638.5983 2175.8633)" fill="#3CA35D" width="21.349" height="1.57"/>
				</g>
			</g>
			<g>
				<g>
					
						<rect x="902.85" y="1471.918" transform="matrix(0.599 -0.8007 0.8007 0.599 -805.6625 1336.5521)" fill="#3CA35D" width="57.643" height="1.57"/>
				</g>
			</g>
			<g>
				<g>
					<path fill="#3CA35D" d="M905.19,1519.518l-0.941-1.259c3.211-2.402,52.818-51.925,54.162-54.07l0.639,0.4l0.547-0.69
						l0.302,0.638C959.875,1466.255,905.736,1519.109,905.19,1519.518z"/>
				</g>
			</g>
			<g>
				<g>
					
						<rect x="889.928" y="1504.549" transform="matrix(0.6772 -0.7358 0.7358 0.6772 -806.2104 1172.9064)" fill="#3CA35D" width="87.582" height="1.571"/>
				</g>
			</g>
			<g>
				<g>
					
						<rect x="916.593" y="1512.342" transform="matrix(0.9189 -0.3945 0.3945 0.9189 -520.7255 493.545)" fill="#3CA35D" width="46.599" height="1.572"/>
				</g>
			</g>
			<g>
				<g>
					<polygon fill="#3CA35D" points="886.812,1537.077 885.242,1537.11 884.526,1504.298 898.896,1420.785 900.443,1421.053 
						886.085,1504.415 					"/>
				</g>
			</g>
			<g>
				<g>
					<path fill="#3CA35D" d="M886.359,1507.307l-1.542,0.297c-17.702-92.037-17.452-92.401-17.212-92.754l0.649,0.443l0.144,0.77
						l-0.142-0.772l0.779,0.021C869.13,1417.327,880.409,1476.369,886.359,1507.307z"/>
				</g>
			</g>
			<g>
				<g>
					<polygon fill="#3CA35D" points="885.827,1501.264 884.259,1501.159 887.092,1458.396 890.781,1416.539 892.345,1416.676 
						888.658,1458.518 					"/>
				</g>
			</g>
			<g>
				<g>
					
						<rect x="880.83" y="1413.708" transform="matrix(0.955 -0.2966 0.2966 0.955 -386.1089 326.104)" fill="#3CA35D" width="1.571" height="43.518"/>
				</g>
			</g>
			<g>
				<g>
					
						<rect x="885.686" y="1438.952" transform="matrix(0.5245 -0.8514 0.8514 0.5245 -796.4473 1453.4022)" fill="#3CA35D" width="34.558" height="1.571"/>
				</g>
			</g>
			<g>
				<g>
					
						<rect x="906.175" y="1441.544" transform="matrix(1 -0.003 0.003 1 -4.4175 2.7323)" fill="#3CA35D" width="1.57" height="59.511"/>
				</g>
			</g>
			<g>
				<g>
					
						<rect x="896.174" y="1494.063" transform="matrix(0.9962 -0.0874 0.0874 0.9962 -128.8629 84.1836)" fill="#3CA35D" width="1.571" height="39.332"/>
				</g>
			</g>
			<g>
				<g>
					
						<rect x="799.63" y="1476.907" transform="matrix(0.0153 -0.9999 0.9999 0.0153 -629.1354 2316.5732)" fill="#3CA35D" width="123.812" height="1.571"/>
				</g>
			</g>
			<g>
				<g>
					<path fill="#3CA35D" d="M872.093,1538.689l-1.569-0.073c2.015-43.11,3.699-65.384,5.008-66.205l0.789-0.065l-0.617,1.446
						c0.398,0.168,0.77-0.068,0.855-0.243C875.41,1475.83,873.259,1513.755,872.093,1538.689z"/>
				</g>
			</g>
			<g>
				<g>
					
						<rect x="846.709" y="1433.767" transform="matrix(0.8732 -0.4874 0.4874 0.8732 -597.0821 596.3754)" fill="#3CA35D" width="1.571" height="23.629"/>
				</g>
			</g>
			<g>
				<g>
					
						<rect x="868.444" y="1456.69" transform="matrix(0.9954 -0.0953 0.0953 0.9954 -138.0782 89.663)" fill="#3CA35D" width="1.571" height="66.091"/>
				</g>
			</g>
			<g>
				<g>
					<polygon fill="#3CA35D" points="846.391,1547.364 843.125,1496.04 844.693,1495.94 847.13,1534.233 855.295,1488.277 
						848.931,1415.472 850.496,1415.334 856.86,1488.449 					"/>
				</g>
			</g>
			<g>
				<g>
					
						<rect x="809.75" y="1488.054" transform="matrix(0.236 -0.9718 0.9718 0.236 -804.2108 1954.7942)" fill="#3CA35D" width="62.614" height="1.57"/>
				</g>
			</g>
			<g>
				<g>
					<polygon fill="#3CA35D" points="834.989,1547.191 819.04,1497.982 819.031,1497.902 810.997,1423.666 812.559,1423.497 
						820.585,1497.653 833.214,1536.619 830.9,1416.993 832.471,1416.963 					"/>
				</g>
			</g>
			<g>
				<g>
					
						<rect x="807.13" y="1429.3" transform="matrix(0.9204 -0.391 0.391 0.9204 -503.19 431.4705)" fill="#3CA35D" width="1.571" height="44.119"/>
				</g>
			</g>
			<g>
				<g>
					
						<rect x="826.732" y="1421.793" transform="matrix(0.9871 -0.1598 0.1598 0.9871 -222.1951 150.9675)" fill="#3CA35D" width="1.57" height="70.301"/>
				</g>
			</g>
			<g>
				<g>
					<path fill="#3CA35D" d="M824.179,1543.028c-9.615-21.546-25.758-57.825-25.836-58.722l1.565-0.135l-0.783,0.067l0.764-0.175
						c0.47,1.613,18.728,42.65,25.723,58.325L824.179,1543.028z"/>
				</g>
			</g>
			<g>
				<g>
					
						<rect x="809.697" y="1434.893" transform="matrix(0.9506 -0.3104 0.3104 0.9506 -422.2784 325.109)" fill="#3CA35D" width="1.571" height="109.257"/>
				</g>
			</g>
			<g>
				<g>
					
						<rect x="810.574" y="1513.376" transform="matrix(0.6393 -0.7689 0.7689 0.6393 -880.3604 1174.0908)" fill="#3CA35D" width="1.571" height="24.204"/>
				</g>
			</g>
			<g>
				<g>
					<path fill="#3CA35D" d="M942.188,1462.297l8.555-5c0,0-1.901,5.964-3.825,7.678
						C944.994,1466.688,937.965,1464.762,942.188,1462.297z"/>
				</g>
			</g>
			<g>
				<g>
					<path fill="#3CA35D" d="M862.489,1440.802l6.967-4.073c0,0-1.547,4.858-3.115,6.252
						C864.775,1444.378,859.05,1442.81,862.489,1440.802z"/>
				</g>
			</g>
			<g>
				<g>
					<path fill="#3CA35D" d="M874.66,1490.972l4.747-6.527c0,0,0.531,5.07-0.344,6.977
						C878.187,1493.329,872.314,1494.19,874.66,1490.972z"/>
				</g>
			</g>
			<g>
				<g>
					<path fill="#3CA35D" d="M843.241,1439.392l-6.246-7.979c0,0-1.356,2.737,1.15,6.26
						C840.516,1441.005,841.869,1440.504,843.241,1439.392z"/>
				</g>
			</g>
			<g>
				<g>
					<path fill="#3CA35D" d="M826.703,1465.064l-6.247-7.979c0,0-1.356,2.737,1.151,6.261
						C823.977,1466.678,825.331,1466.176,826.703,1465.064z"/>
				</g>
			</g>
			<g>
				<g>
					<path fill="#3CA35D" d="M840.988,1467.387l1.668,11.479c0,0-5.822-1.659-5.981-5.014
						C836.515,1470.498,840.988,1467.387,840.988,1467.387z"/>
				</g>
			</g>
			<g>
				<g>
					<path fill="#3CA35D" d="M903.759,1450.423c0,0,1.613,10.375,2.317,11.694c0.706,1.319-6.396-1.981-6.358-5.328
						C899.757,1453.442,902.2,1453.481,903.759,1450.423z"/>
				</g>
			</g>
			<g>
				<g>
					<path fill="#3CA35D" d="M902.053,1475.195c0,0,3.397,9.936,4.321,11.112c0.924,1.176-6.644-0.836-7.19-4.139
						C898.638,1478.866,901.052,1478.479,902.053,1475.195z"/>
				</g>
			</g>
			<g>
				<g>
					<path fill="#3CA35D" d="M955.135,1485.948c0,0-6.038,4.151-7.046,4.426c-1.006,0.273,4.07,2.296,5.749,0.674
						C955.52,1489.427,954.329,1488.204,955.135,1485.948z"/>
				</g>
			</g>
			<g>
				<g>
					<path fill="#3CA35D" d="M885.243,1453.192c0,0,0.771,7.286,1.217,8.23c0.446,0.943-4.39-1.6-4.249-3.931
						C882.35,1455.16,884.053,1455.271,885.243,1453.192z"/>
				</g>
			</g>
			<g>
				<g>
					<path fill="#3CA35D" d="M879.026,1505.374c0,0-3.357,6.514-4.115,7.232c-0.758,0.718,4.672,0.099,5.385-2.124
						C881.009,1508.257,879.381,1507.744,879.026,1505.374z"/>
				</g>
			</g>
			<g>
				<g>
					<path fill="#3CA35D" d="M933.594,1433.888c0,0-6.038,4.152-7.045,4.427c-1.007,0.273,4.07,2.295,5.749,0.674
						C933.979,1437.367,932.788,1436.144,933.594,1433.888z"/>
				</g>
			</g>
			<g>
				<g>
					<path fill="#3CA35D" d="M883.969,1421.063c0,0-0.877,7.275-1.336,8.213c-0.46,0.936,4.413-1.538,4.307-3.868
						C886.832,1423.074,885.128,1423.16,883.969,1421.063z"/>
				</g>
			</g>
			<g>
				<g>
					<path fill="#3CA35D" d="M850.959,1487.83c0,0,2.593,7.585,3.299,8.484c0.706,0.897-5.073-0.639-5.49-3.16
						C848.351,1490.633,850.194,1490.337,850.959,1487.83z"/>
				</g>
			</g>
			<g>
				<g>
					<path fill="#3CA35D" d="M813.496,1472.193c0,0,2.744,5.067,3.352,5.62c0.608,0.553-3.671,0.153-4.268-1.583
						C811.983,1474.492,813.253,1474.063,813.496,1472.193z"/>
				</g>
			</g>
			<g>
				<g>
					<path fill="#3CA35D" d="M808.181,1431.153c0,0,2.844,5.25,3.473,5.824c0.63,0.572-3.805,0.159-4.424-1.643
						C806.612,1433.532,807.928,1433.089,808.181,1431.153z"/>
				</g>
			</g>
			<g>
				<g>
					<path fill="#3CA35D" d="M871.102,1525.234c0,0-3.446-6.269-3.171-9.771c0.273-3.503-4.687,3.86-2.45,7.35
						C867.717,1526.303,870.143,1525.319,871.102,1525.234z"/>
				</g>
			</g>
			<g>
				<g>
					<path fill="#3CA35D" d="M833.23,1505.954c0,0-4.458-5.595-4.781-9.093c-0.325-3.5-3.966,4.598-1.171,7.658
						C830.075,1507.581,832.299,1506.199,833.23,1505.954z"/>
				</g>
			</g>
			<g>
				<g>
					
						<rect x="798.686" y="1439.075" transform="matrix(0.8884 -0.459 0.459 0.8884 -587.2742 531.4113)" fill="#3CA35D" width="1.57" height="69.296"/>
				</g>
			</g>
			<g>
				<g>
					
						<rect x="791.234" y="1445.524" transform="matrix(0.8687 -0.4953 0.4953 0.8687 -633.3328 587.7453)" fill="#3CA35D" width="1.57" height="86.057"/>
				</g>
			</g>
			<g>
				<g>
					
						<rect x="916.469" y="1526.27" transform="matrix(0.9355 -0.3533 0.3533 0.9355 -478.9637 430.0786)" fill="#3CA35D" width="44.311" height="1.572"/>
				</g>
			</g>
		</g>
	</g>
	<g>
		<g>
			<path fill="#3CA35D" d="M1407.68,1364.836l-2.866,5.074c0,0-1.617-2.304-1.055-3.054
				C1404.322,1366.109,1407.68,1364.836,1407.68,1364.836z"/>
		</g>
		<g>
			<path fill="#3CA35D" d="M1372.275,1374.13l2.919,5.044c0,0-2.807,0.224-3.167-0.641
				C1371.668,1377.668,1372.275,1374.13,1372.275,1374.13z"/>
		</g>
		<g>
			<path fill="#3CA35D" d="M1385.363,1371.747l4.991-2.917c0,0-1.109,3.479-2.231,4.479
				C1387,1374.309,1382.899,1373.185,1385.363,1371.747z"/>
		</g>
		<g>
			<path fill="#3CA35D" d="M1313.007,1341.26l-3.644-4.655c0,0-0.791,1.597,0.671,3.652
				C1311.417,1342.201,1312.207,1341.909,1313.007,1341.26z"/>
		</g>
		<g>
			<path fill="#3CA35D" d="M1316.22,1356.125c0,0,2.227,4.112,2.72,4.561c0.494,0.448-2.98,0.125-3.464-1.286
				C1314.992,1357.99,1316.023,1357.642,1316.22,1356.125z"/>
		</g>
		<g>
			<g>
				<g>
					
						<rect x="1373.75" y="1333.784" transform="matrix(0.0382 -0.9993 0.9993 0.0382 0.1171 2668.6062)" fill="#3CA35D" width="25.148" height="0.917"/>
				</g>
			</g>
			<g>
				<g>
					<path fill="#3CA35D" d="M1375.46,1385.951l-0.864-0.3l17.148-61.787l0.883,0.245l-15.208,54.799
						c8.214-19.605,20.213-48.295,20.48-49.134l0.886,0.232C1398.615,1330.712,1377.83,1380.298,1375.46,1385.951z"/>
				</g>
			</g>
			<g>
				<g>
					
						<rect x="1387.125" y="1337.397" transform="matrix(0.1365 -0.9906 0.9906 0.1365 -122.1494 2535.5789)" fill="#3CA35D" width="12.455" height="0.916"/>
				</g>
			</g>
			<g>
				<g>
					
						<rect x="1378.221" y="1348.171" transform="matrix(0.5989 -0.8008 0.8008 0.5989 -520.4764 1658.0468)" fill="#3CA35D" width="33.628" height="0.916"/>
				</g>
			</g>
			<g>
				<g>
					<path fill="#3CA35D" d="M1379.586,1375.94l-0.549-0.734c1.873-1.401,30.813-30.292,31.598-31.544l0.372,0.234l0.319-0.403
						l0.176,0.372C1411.489,1344.868,1379.905,1375.702,1379.586,1375.94z"/>
				</g>
			</g>
			<g>
				<g>
					
						<rect x="1370.683" y="1367.208" transform="matrix(0.6771 -0.7359 0.7359 0.6771 -555.611 1469.0842)" fill="#3CA35D" width="51.094" height="0.916"/>
				</g>
			</g>
			<g>
				<g>
					
						<rect x="1386.238" y="1371.754" transform="matrix(0.9189 -0.3945 0.3945 0.9189 -427.7969 663.5023)" fill="#3CA35D" width="27.185" height="0.917"/>
				</g>
			</g>
			<g>
				<g>
					<polygon fill="#3CA35D" points="1368.865,1386.184 1367.949,1386.203 1367.531,1367.061 1375.914,1318.341 1376.817,1318.497 
						1368.44,1367.129 					"/>
				</g>
			</g>
			<g>
				<g>
					<path fill="#3CA35D" d="M1368.601,1368.816l-0.9,0.173c-10.327-53.693-10.181-53.905-10.041-54.111l0.379,0.258l0.084,0.449
						l-0.083-0.45l0.455,0.012C1358.55,1316.324,1365.129,1350.768,1368.601,1368.816z"/>
				</g>
			</g>
			<g>
				<g>
					<polygon fill="#3CA35D" points="1368.29,1365.291 1367.375,1365.23 1369.028,1340.283 1371.18,1315.864 1372.093,1315.944 
						1369.942,1340.354 					"/>
				</g>
			</g>
			<g>
				<g>
					
						<rect x="1365.375" y="1314.212" transform="matrix(0.955 -0.2966 0.2966 0.955 -332.1231 464.8593)" fill="#3CA35D" width="0.916" height="25.387"/>
				</g>
			</g>
			<g>
				<g>
					
						<rect x="1368.208" y="1328.939" transform="matrix(0.5244 -0.8515 0.8515 0.5244 -476.4492 1805.7645)" fill="#3CA35D" width="20.161" height="0.916"/>
				</g>
			</g>
			<g>
				<g>
					
						<rect x="1380.161" y="1330.451" transform="matrix(1 -0.003 0.003 1 -4.0447 4.1556)" fill="#3CA35D" width="0.916" height="34.718"/>
				</g>
			</g>
			<g>
				<g>
					
						<rect x="1374.326" y="1361.09" transform="matrix(0.9962 -0.0876 0.0876 0.9962 -114.9054 125.6525)" fill="#3CA35D" width="0.916" height="22.946"/>
				</g>
			</g>
			<g>
				<g>
					
						<rect x="1318.004" y="1351.082" transform="matrix(0.0154 -0.9999 0.9999 0.0154 -18.1709 2684.627)" fill="#3CA35D" width="72.229" height="0.917"/>
				</g>
			</g>
			<g>
				<g>
					<path fill="#3CA35D" d="M1360.278,1387.125l-0.915-0.043c1.175-25.15,2.158-38.144,2.921-38.623l0.46-0.037l-0.36,0.843
						c0.232,0.098,0.449-0.04,0.499-0.142C1362.213,1350.453,1360.958,1372.578,1360.278,1387.125z"/>
				</g>
			</g>
			<g>
				<g>
					
						<rect x="1345.469" y="1325.915" transform="matrix(0.8732 -0.4874 0.4874 0.8732 -478.9098 825.0038)" fill="#3CA35D" width="0.917" height="13.785"/>
				</g>
			</g>
			<g>
				<g>
					
						<rect x="1358.149" y="1339.288" transform="matrix(0.9955 -0.0952 0.0952 0.9955 -123.1719 135.5183)" fill="#3CA35D" width="0.917" height="38.556"/>
				</g>
			</g>
			<g>
				<g>
					<polygon fill="#3CA35D" points="1345.284,1392.185 1343.379,1362.243 1344.293,1362.186 1345.715,1384.525 1350.478,1357.715 
						1346.766,1315.241 1347.679,1315.161 1351.391,1357.815 					"/>
				</g>
			</g>
			<g>
				<g>
					
						<rect x="1323.908" y="1357.585" transform="matrix(0.2362 -0.9717 0.9717 0.2362 -294.4305 2341.5256)" fill="#3CA35D" width="36.528" height="0.916"/>
				</g>
			</g>
			<g>
				<g>
					<polygon fill="#3CA35D" points="1338.632,1392.084 1329.328,1363.377 1329.323,1363.329 1324.636,1320.022 1325.547,1319.923 
						1330.229,1363.184 1337.597,1385.916 1336.247,1316.129 1337.163,1316.111 					"/>
				</g>
			</g>
			<g>
				<g>
					
						<rect x="1322.38" y="1323.309" transform="matrix(0.9204 -0.391 0.391 0.9204 -417.1539 623.6475)" fill="#3CA35D" width="0.917" height="25.738"/>
				</g>
			</g>
			<g>
				<g>
					
						<rect x="1333.815" y="1318.929" transform="matrix(0.9872 -0.1597 0.1597 0.9872 -196.8191 230.3237)" fill="#3CA35D" width="0.916" height="41.012"/>
				</g>
			</g>
			<g>
				<g>
					<path fill="#3CA35D" d="M1332.326,1389.656c-5.609-12.57-15.026-33.734-15.072-34.257l0.913-0.079l-0.457,0.039l0.446-0.102
						c0.274,0.941,10.926,24.881,15.006,34.026L1332.326,1389.656z"/>
				</g>
			</g>
			<g>
				<g>
					
						<rect x="1323.877" y="1326.572" transform="matrix(0.9506 -0.3104 0.3104 0.9506 -356.2209 478.1248)" fill="#3CA35D" width="0.917" height="63.739"/>
				</g>
			</g>
			<g>
				<g>
					
						<rect x="1324.389" y="1372.357" transform="matrix(0.6393 -0.7689 0.7689 0.6393 -582.8463 1516.2339)" fill="#3CA35D" width="0.916" height="14.12"/>
				</g>
			</g>
			<g>
				<g>
					<path fill="#3CA35D" d="M1401.17,1342.558l4.991-2.917c0,0-1.109,3.479-2.231,4.479
						C1402.807,1345.12,1398.706,1343.996,1401.17,1342.558z"/>
				</g>
			</g>
			<g>
				<g>
					<path fill="#3CA35D" d="M1354.675,1330.019l4.064-2.376c0,0-0.903,2.834-1.817,3.648
						C1356.009,1332.105,1352.669,1331.19,1354.675,1330.019z"/>
				</g>
			</g>
			<g>
				<g>
					<path fill="#3CA35D" d="M1361.775,1359.287l2.77-3.808c0,0,0.31,2.958-0.201,4.07
						C1363.833,1360.662,1360.406,1361.164,1361.775,1359.287z"/>
				</g>
			</g>
			<g>
				<g>
					<path fill="#3CA35D" d="M1343.446,1329.196l-3.644-4.655c0,0-0.791,1.597,0.671,3.652
						C1341.856,1330.137,1342.645,1329.845,1343.446,1329.196z"/>
				</g>
			</g>
			<g>
				<g>
					<path fill="#3CA35D" d="M1333.798,1344.173l-3.644-4.655c0,0-0.791,1.597,0.671,3.652
						C1332.208,1345.114,1332.998,1344.822,1333.798,1344.173z"/>
				</g>
			</g>
			<g>
				<g>
					<path fill="#3CA35D" d="M1342.132,1345.528l0.973,6.697c0,0-3.396-0.968-3.49-2.925
						C1339.523,1347.343,1342.132,1345.528,1342.132,1345.528z"/>
				</g>
			</g>
			<g>
				<g>
					<path fill="#3CA35D" d="M1378.751,1335.631c0,0,0.941,6.053,1.352,6.822c0.411,0.77-3.731-1.155-3.709-3.108
						C1376.417,1337.393,1377.842,1337.416,1378.751,1335.631z"/>
				</g>
			</g>
			<g>
				<g>
					<path fill="#3CA35D" d="M1377.756,1350.083c0,0,1.982,5.796,2.521,6.483c0.539,0.686-3.876-0.488-4.194-2.414
						C1375.764,1352.225,1377.172,1351.999,1377.756,1350.083z"/>
				</g>
			</g>
			<g>
				<g>
					<path fill="#3CA35D" d="M1408.724,1356.356c0,0-3.523,2.422-4.11,2.582c-0.587,0.16,2.374,1.339,3.354,0.394
						C1408.948,1358.385,1408.253,1357.672,1408.724,1356.356z"/>
				</g>
			</g>
			<g>
				<g>
					<path fill="#3CA35D" d="M1367.95,1337.247c0,0,0.449,4.251,0.71,4.802c0.26,0.55-2.561-0.933-2.479-2.293
						C1366.262,1338.395,1367.255,1338.46,1367.95,1337.247z"/>
				</g>
			</g>
			<g>
				<g>
					<path fill="#3CA35D" d="M1364.322,1367.689c0,0-1.959,3.8-2.4,4.219c-0.442,0.419,2.726,0.058,3.141-1.239
						C1365.48,1369.371,1364.53,1369.072,1364.322,1367.689z"/>
				</g>
			</g>
			<g>
				<g>
					<path fill="#3CA35D" d="M1396.157,1325.985c0,0-3.523,2.422-4.11,2.582c-0.587,0.159,2.374,1.339,3.354,0.393
						C1396.381,1328.015,1395.686,1327.301,1396.157,1325.985z"/>
				</g>
			</g>
			<g>
				<g>
					<path fill="#3CA35D" d="M1367.206,1318.504c0,0-0.512,4.244-0.78,4.791c-0.268,0.546,2.575-0.897,2.513-2.257
						C1368.876,1319.676,1367.882,1319.727,1367.206,1318.504z"/>
				</g>
			</g>
			<g>
				<g>
					<path fill="#3CA35D" d="M1347.949,1357.454c0,0,1.513,4.425,1.925,4.949c0.412,0.524-2.959-0.372-3.203-1.844
						C1346.427,1359.089,1347.503,1358.917,1347.949,1357.454z"/>
				</g>
			</g>
			<g>
				<g>
					<path fill="#3CA35D" d="M1326.094,1348.332c0,0,1.601,2.956,1.955,3.278c0.355,0.323-2.142,0.089-2.49-0.923
						C1325.211,1349.673,1325.952,1349.423,1326.094,1348.332z"/>
				</g>
			</g>
			<g>
				<g>
					<path fill="#3CA35D" d="M1322.993,1324.39c0,0,1.659,3.062,2.026,3.397c0.368,0.334-2.22,0.093-2.581-0.958
						C1322.077,1325.778,1322.845,1325.519,1322.993,1324.39z"/>
				</g>
			</g>
			<g>
				<g>
					<path fill="#3CA35D" d="M1359.7,1379.275c0,0-2.01-3.657-1.851-5.7c0.16-2.044-2.734,2.252-1.429,4.287
						C1357.725,1379.899,1359.141,1379.325,1359.7,1379.275z"/>
				</g>
			</g>
			<g>
				<g>
					<path fill="#3CA35D" d="M1337.606,1368.027c0,0-2.601-3.264-2.789-5.304c-0.19-2.042-2.313,2.682-0.683,4.467
						C1335.765,1368.976,1337.063,1368.17,1337.606,1368.027z"/>
				</g>
			</g>
			<g>
				<g>
					
						<rect x="1317.453" y="1329.012" transform="matrix(0.8884 -0.459 0.459 0.8884 -472.283 755.5066)" fill="#3CA35D" width="0.916" height="40.426"/>
				</g>
			</g>
			<g>
				<g>
					
						<rect x="1313.106" y="1332.773" transform="matrix(0.8687 -0.4953 0.4953 0.8687 -500.1265 828.9122)" fill="#3CA35D" width="0.916" height="50.204"/>
				</g>
			</g>
			<g>
				<g>
					
						<rect x="1386.166" y="1379.879" transform="matrix(0.9356 -0.3531 0.3531 0.9356 -397.2331 582.8371)" fill="#3CA35D" width="25.85" height="0.917"/>
				</g>
			</g>
		</g>
	</g>
	<g>
		<g>
			<path fill="#3CA35D" d="M270.291,1615.544l-4.912,8.698c0,0-2.772-3.95-1.808-5.235
				C264.536,1617.725,270.291,1615.544,270.291,1615.544z"/>
		</g>
		<g>
			<path fill="#3CA35D" d="M209.602,1631.474l5.003,8.647c0,0-4.81,0.384-5.428-1.1
				C208.562,1637.54,209.602,1631.474,209.602,1631.474z"/>
		</g>
		<g>
			<path fill="#3CA35D" d="M232.036,1627.391l8.555-5c0,0-1.901,5.964-3.824,7.678
				C234.843,1631.782,227.813,1629.856,232.036,1627.391z"/>
		</g>
		<g>
			<path fill="#3CA35D" d="M108.008,1575.132l-6.246-7.98c0,0-1.356,2.737,1.15,6.261
				C105.283,1576.745,106.636,1576.244,108.008,1575.132z"/>
		</g>
		<g>
			<path fill="#3CA35D" d="M113.517,1600.612c0,0,3.818,7.049,4.663,7.818c0.845,0.768-5.108,0.214-5.938-2.204
				C111.41,1603.81,113.179,1603.213,113.517,1600.612z"/>
		</g>
		<g>
			<g>
				<g>
					
						<rect x="212.131" y="1562.317" transform="matrix(0.038 -0.9993 0.9993 0.038 -1337.1742 1737.1735)" fill="#3CA35D" width="43.107" height="1.572"/>
				</g>
			</g>
			<g>
				<g>
					<path fill="#3CA35D" d="M215.062,1651.738l-1.481-0.514l29.393-105.911l1.513,0.419l-26.069,93.932
						c14.08-33.605,34.648-82.784,35.105-84.222l1.519,0.398C254.753,1557.051,219.123,1642.049,215.062,1651.738z"/>
				</g>
			</g>
			<g>
				<g>
					
						<rect x="235.057" y="1568.51" transform="matrix(0.1365 -0.9906 0.9906 0.1365 -1342.4171 1598.5491)" fill="#3CA35D" width="21.349" height="1.57"/>
				</g>
			</g>
			<g>
				<g>
					
						<rect x="219.794" y="1586.979" transform="matrix(0.599 -0.8007 0.8007 0.599 -1171.67 835.7051)" fill="#3CA35D" width="57.643" height="1.57"/>
				</g>
			</g>
			<g>
				<g>
					<path fill="#3CA35D" d="M222.134,1634.578l-0.941-1.259c3.211-2.402,52.818-51.925,54.162-54.07l0.639,0.4l0.547-0.69
						l0.302,0.638C276.819,1581.316,222.679,1634.17,222.134,1634.578z"/>
				</g>
			</g>
			<g>
				<g>
					
						<rect x="206.872" y="1619.61" transform="matrix(0.6771 -0.7359 0.7359 0.6771 -1111.5154 707.7168)" fill="#3CA35D" width="87.582" height="1.571"/>
				</g>
			</g>
			<g>
				<g>
					
						<rect x="233.537" y="1627.403" transform="matrix(0.9189 -0.3944 0.3944 0.9189 -621.3007 233.2556)" fill="#3CA35D" width="46.6" height="1.572"/>
				</g>
			</g>
			<g>
				<g>
					<polygon fill="#3CA35D" points="203.756,1652.137 202.186,1652.171 201.47,1619.358 215.839,1535.845 217.387,1536.113 
						203.029,1619.476 					"/>
				</g>
			</g>
			<g>
				<g>
					<path fill="#3CA35D" d="M203.303,1622.368l-1.542,0.297c-17.702-92.037-17.452-92.401-17.212-92.754l0.649,0.443l0.144,0.77
						l-0.142-0.772l0.779,0.021C186.074,1532.388,197.353,1591.429,203.303,1622.368z"/>
				</g>
			</g>
			<g>
				<g>
					<polygon fill="#3CA35D" points="202.771,1616.324 201.203,1616.219 204.036,1573.457 207.725,1531.599 209.289,1531.737 
						205.602,1573.578 					"/>
				</g>
			</g>
			<g>
				<g>
					
						<rect x="197.774" y="1528.768" transform="matrix(0.955 -0.2966 0.2966 0.955 -450.9742 128.6739)" fill="#3CA35D" width="1.571" height="43.518"/>
				</g>
			</g>
			<g>
				<g>
					
						<rect x="202.63" y="1554.013" transform="matrix(0.5247 -0.8513 0.8513 0.5247 -1219.0892 926.2761)" fill="#3CA35D" width="34.558" height="1.571"/>
				</g>
			</g>
			<g>
				<g>
					
						<rect x="223.119" y="1556.604" transform="matrix(1 -0.0028 0.0028 1 -4.3693 0.6228)" fill="#3CA35D" width="1.57" height="59.512"/>
				</g>
			</g>
			<g>
				<g>
					
						<rect x="213.118" y="1609.124" transform="matrix(0.9962 -0.0874 0.0874 0.9962 -141.5325 24.9269)" fill="#3CA35D" width="1.571" height="39.332"/>
				</g>
			</g>
			<g>
				<g>
					
						<rect x="116.574" y="1591.968" transform="matrix(0.0153 -0.9999 0.9999 0.0153 -1416.8131 1746.8951)" fill="#3CA35D" width="123.812" height="1.571"/>
				</g>
			</g>
			<g>
				<g>
					<path fill="#3CA35D" d="M189.037,1653.75l-1.569-0.073c2.014-43.111,3.699-65.384,5.008-66.205l0.789-0.065l-0.617,1.446
						c0.398,0.168,0.77-0.068,0.855-0.243C192.354,1590.89,190.203,1628.816,189.037,1653.75z"/>
				</g>
			</g>
			<g>
				<g>
					
						<rect x="163.653" y="1548.827" transform="matrix(0.8732 -0.4874 0.4874 0.8732 -739.7791 278.0534)" fill="#3CA35D" width="1.571" height="23.629"/>
				</g>
			</g>
			<g>
				<g>
					
						<rect x="185.388" y="1571.751" transform="matrix(0.9954 -0.0953 0.0953 0.9954 -152.154 25.0602)" fill="#3CA35D" width="1.571" height="66.091"/>
				</g>
			</g>
			<g>
				<g>
					<polygon fill="#3CA35D" points="163.335,1662.424 160.07,1611.1 161.637,1611.001 164.074,1649.294 172.239,1603.338 
						165.875,1530.532 167.44,1530.395 173.804,1603.509 					"/>
				</g>
			</g>
			<g>
				<g>
					
						<rect x="126.694" y="1603.115" transform="matrix(0.236 -0.9718 0.9718 0.236 -1437.8851 1378.938)" fill="#3CA35D" width="62.614" height="1.57"/>
				</g>
			</g>
			<g>
				<g>
					<polygon fill="#3CA35D" points="151.933,1662.251 135.984,1613.043 135.976,1612.962 127.942,1538.726 129.503,1538.558 
						137.529,1612.713 150.158,1651.679 147.844,1532.054 149.415,1532.024 					"/>
				</g>
			</g>
			<g>
				<g>
					
						<rect x="124.074" y="1544.361" transform="matrix(0.9204 -0.391 0.391 0.9204 -602.5773 173.5465)" fill="#3CA35D" width="1.571" height="44.119"/>
				</g>
			</g>
			<g>
				<g>
					
						<rect x="143.676" y="1536.853" transform="matrix(0.9871 -0.1598 0.1598 0.9871 -249.3536 43.2869)" fill="#3CA35D" width="1.57" height="70.301"/>
				</g>
			</g>
			<g>
				<g>
					<path fill="#3CA35D" d="M141.123,1658.089c-9.615-21.546-25.758-57.825-25.836-58.722l1.565-0.134l-0.783,0.067l0.764-0.175
						c0.469,1.612,18.728,42.649,25.723,58.325L141.123,1658.089z"/>
				</g>
			</g>
			<g>
				<g>
					
						<rect x="126.641" y="1549.953" transform="matrix(0.9506 -0.3104 0.3104 0.9506 -491.722 118.7908)" fill="#3CA35D" width="1.571" height="109.257"/>
				</g>
			</g>
			<g>
				<g>
					
						<rect x="127.518" y="1628.437" transform="matrix(0.6393 -0.7689 0.7689 0.6393 -1215.1975 690.3625)" fill="#3CA35D" width="1.571" height="24.204"/>
				</g>
			</g>
			<g>
				<g>
					<path fill="#3CA35D" d="M259.132,1577.357l8.555-5c0,0-1.901,5.964-3.825,7.678
						C261.939,1581.749,254.909,1579.822,259.132,1577.357z"/>
				</g>
			</g>
			<g>
				<g>
					<path fill="#3CA35D" d="M179.433,1555.863l6.967-4.074c0,0-1.547,4.859-3.114,6.253
						C181.719,1559.438,175.994,1557.87,179.433,1555.863z"/>
				</g>
			</g>
			<g>
				<g>
					<path fill="#3CA35D" d="M191.604,1606.033l4.747-6.527c0,0,0.531,5.07-0.344,6.977
						C195.131,1608.389,189.258,1609.25,191.604,1606.033z"/>
				</g>
			</g>
			<g>
				<g>
					<path fill="#3CA35D" d="M160.185,1554.453l-6.247-7.98c0,0-1.356,2.737,1.151,6.26
						C157.46,1556.066,158.813,1555.565,160.185,1554.453z"/>
				</g>
			</g>
			<g>
				<g>
					<path fill="#3CA35D" d="M143.647,1580.125l-6.246-7.98c0,0-1.356,2.737,1.15,6.261
						C140.921,1581.738,142.275,1581.237,143.647,1580.125z"/>
				</g>
			</g>
			<g>
				<g>
					<path fill="#3CA35D" d="M157.932,1582.448l1.668,11.479c0,0-5.822-1.659-5.981-5.014
						C153.459,1585.559,157.932,1582.448,157.932,1582.448z"/>
				</g>
			</g>
			<g>
				<g>
					<path fill="#3CA35D" d="M220.703,1565.484c0,0,1.613,10.375,2.317,11.694c0.706,1.319-6.396-1.981-6.358-5.328
						C216.701,1568.502,219.144,1568.542,220.703,1565.484z"/>
				</g>
			</g>
			<g>
				<g>
					<path fill="#3CA35D" d="M218.997,1590.256c0,0,3.397,9.936,4.321,11.112c0.925,1.176-6.644-0.836-7.19-4.138
						C215.582,1593.927,217.996,1593.54,218.997,1590.256z"/>
				</g>
			</g>
			<g>
				<g>
					<path fill="#3CA35D" d="M272.079,1601.009c0,0-6.038,4.151-7.045,4.426c-1.007,0.273,4.07,2.296,5.749,0.674
						C272.464,1604.487,271.273,1603.264,272.079,1601.009z"/>
				</g>
			</g>
			<g>
				<g>
					<path fill="#3CA35D" d="M202.187,1568.252c0,0,0.771,7.286,1.217,8.23c0.447,0.943-4.39-1.6-4.249-3.93
						C199.294,1570.22,200.997,1570.331,202.187,1568.252z"/>
				</g>
			</g>
			<g>
				<g>
					<path fill="#3CA35D" d="M195.97,1620.434c0,0-3.357,6.514-4.115,7.232c-0.758,0.718,4.672,0.099,5.385-2.124
						C197.954,1623.317,196.325,1622.804,195.97,1620.434z"/>
				</g>
			</g>
			<g>
				<g>
					<path fill="#3CA35D" d="M250.538,1548.949c0,0-6.038,4.151-7.045,4.426c-1.007,0.273,4.07,2.295,5.749,0.674
						C250.923,1552.427,249.732,1551.205,250.538,1548.949z"/>
				</g>
			</g>
			<g>
				<g>
					<path fill="#3CA35D" d="M200.913,1536.124c0,0-0.877,7.275-1.336,8.213c-0.46,0.936,4.413-1.538,4.307-3.868
						C203.776,1538.134,202.072,1538.22,200.913,1536.124z"/>
				</g>
			</g>
			<g>
				<g>
					<path fill="#3CA35D" d="M167.903,1602.891c0,0,2.594,7.586,3.3,8.484c0.705,0.897-5.073-0.639-5.49-3.16
						C165.295,1605.693,167.138,1605.398,167.903,1602.891z"/>
				</g>
			</g>
			<g>
				<g>
					<path fill="#3CA35D" d="M130.44,1587.254c0,0,2.744,5.067,3.352,5.62c0.608,0.553-3.671,0.153-4.268-1.583
						C128.927,1589.552,130.198,1589.124,130.44,1587.254z"/>
				</g>
			</g>
			<g>
				<g>
					<path fill="#3CA35D" d="M125.125,1546.214c0,0,2.844,5.249,3.473,5.823c0.63,0.572-3.805,0.159-4.424-1.642
						C123.556,1548.593,124.872,1548.149,125.125,1546.214z"/>
				</g>
			</g>
			<g>
				<g>
					<path fill="#3CA35D" d="M188.046,1640.295c0,0-3.446-6.269-3.172-9.771c0.273-3.503-4.687,3.86-2.45,7.35
						C184.661,1641.364,187.087,1640.38,188.046,1640.295z"/>
				</g>
			</g>
			<g>
				<g>
					<path fill="#3CA35D" d="M150.174,1621.015c0,0-4.458-5.595-4.781-9.093c-0.325-3.5-3.966,4.598-1.171,7.658
						C147.019,1622.641,149.244,1621.26,150.174,1621.015z"/>
				</g>
			</g>
			<g>
				<g>
					
						<rect x="115.63" y="1554.136" transform="matrix(0.8884 -0.459 0.459 0.8884 -716.3068 230.7113)" fill="#3CA35D" width="1.57" height="69.295"/>
				</g>
			</g>
			<g>
				<g>
					
						<rect x="108.178" y="1560.584" transform="matrix(0.8687 -0.4953 0.4953 0.8687 -780.003 264.514)" fill="#3CA35D" width="1.57" height="86.057"/>
				</g>
			</g>
			<g>
				<g>
					
						<rect x="233.413" y="1641.331" transform="matrix(0.9356 -0.3531 0.3531 0.9356 -563.3221 195.9907)" fill="#3CA35D" width="44.311" height="1.571"/>
				</g>
			</g>
		</g>
	</g>
	<g>
		<g>
			<path fill="#3CA35D" d="M1640.871,1641.428c-19.784,17.949-21.362,36.81-15.654,53.342h2.806
				C1618.909,1662.902,1640.871,1641.428,1640.871,1641.428z"/>
		</g>
		<g>
			<path fill="#3CA35D" d="M1638.473,1655.868c-6.478,13.685-7.78,27.794-6.344,40.98h1.677
				C1631.476,1672.008,1638.473,1655.868,1638.473,1655.868z"/>
		</g>
		<g>
			<path fill="#3CA35D" d="M1607.026,1662.863c-0.257,9.171,1.725,18.259,5.082,26.991h1.669
				C1607.115,1673.412,1607.026,1662.863,1607.026,1662.863z"/>
		</g>
	</g>
	<g>
		<g>
			<path fill="#3CA35D" d="M567.085,1601.892c-19.784,17.949-21.362,36.81-15.654,53.342h2.806
				C545.124,1623.366,567.085,1601.892,567.085,1601.892z"/>
		</g>
		<g>
			<path fill="#3CA35D" d="M564.688,1616.332c-6.478,13.685-7.78,27.794-6.344,40.98h1.677
				C557.691,1632.472,564.688,1616.332,564.688,1616.332z"/>
		</g>
		<g>
			<path fill="#3CA35D" d="M533.241,1623.327c-0.257,9.171,1.725,18.259,5.082,26.991h1.669
				C533.33,1633.876,533.241,1623.327,533.241,1623.327z"/>
		</g>
	</g>
	<g>
		<g>
			<path fill="#3CA35D" d="M255.355,1698.23c-19.784,17.949-21.362,36.81-15.654,53.342h2.806
				C233.394,1719.705,255.355,1698.23,255.355,1698.23z"/>
		</g>
		<g>
			<path fill="#3CA35D" d="M252.958,1712.671c-6.478,13.685-7.78,27.794-6.344,40.98h1.677
				C245.961,1728.811,252.958,1712.671,252.958,1712.671z"/>
		</g>
		<g>
			<path fill="#3CA35D" d="M221.511,1719.665c-0.257,9.171,1.725,18.259,5.082,26.991h1.669
				C221.6,1730.215,221.511,1719.665,221.511,1719.665z"/>
		</g>
	</g>
	<g>
		<g>
			<path fill="#3CA35D" d="M2756.65,1653.341c-19.784,17.949-21.362,36.81-15.655,53.342h2.806
				C2734.688,1674.816,2756.65,1653.341,2756.65,1653.341z"/>
		</g>
		<g>
			<path fill="#3CA35D" d="M2754.252,1667.782c-6.478,13.685-7.78,27.794-6.344,40.98h1.677
				C2747.255,1683.921,2754.252,1667.782,2754.252,1667.782z"/>
		</g>
		<g>
			<path fill="#3CA35D" d="M2722.806,1674.776c-0.257,9.171,1.725,18.259,5.082,26.991h1.669
				C2722.894,1685.326,2722.806,1674.776,2722.806,1674.776z"/>
		</g>
	</g>
	<g>
		<g>
			<path fill="#3CA35D" d="M1930.957,1390.948c-14.629,13.272-15.796,27.219-11.576,39.443h2.075
				C1914.718,1406.827,1930.957,1390.948,1930.957,1390.948z"/>
		</g>
		<g>
			<path fill="#3CA35D" d="M1929.184,1401.626c-4.79,10.119-5.753,20.552-4.691,30.303h1.24
				C1924.01,1413.56,1929.184,1401.626,1929.184,1401.626z"/>
		</g>
		<g>
			<path fill="#3CA35D" d="M1905.931,1406.798c-0.19,6.781,1.276,13.501,3.758,19.958h1.234
				C1905.997,1414.599,1905.931,1406.798,1905.931,1406.798z"/>
		</g>
	</g>
	<g>
		<g>
			<path fill="#3CA35D" d="M1231.066,1436.806c-14.629,13.272-15.796,27.219-11.576,39.443h2.075
				C1214.827,1452.685,1231.066,1436.806,1231.066,1436.806z"/>
		</g>
		<g>
			<path fill="#3CA35D" d="M1229.293,1447.484c-4.79,10.119-5.753,20.552-4.691,30.302h1.24
				C1224.119,1459.418,1229.293,1447.484,1229.293,1447.484z"/>
		</g>
		<g>
			<path fill="#3CA35D" d="M1206.04,1452.656c-0.19,6.781,1.276,13.502,3.758,19.958h1.234
				C1206.105,1460.457,1206.04,1452.656,1206.04,1452.656z"/>
		</g>
	</g>
	<g>
		<g>
			<path fill="#3CA35D" d="M1017.051,1623.01c-14.629,13.272-15.796,27.219-11.575,39.443h2.075
				C1000.812,1638.889,1017.051,1623.01,1017.051,1623.01z"/>
		</g>
		<g>
			<path fill="#3CA35D" d="M1015.278,1633.687c-4.79,10.119-5.753,20.552-4.691,30.303h1.24
				C1010.104,1645.622,1015.278,1633.687,1015.278,1633.687z"/>
		</g>
		<g>
			<path fill="#3CA35D" d="M992.026,1638.86c-0.19,6.781,1.275,13.501,3.757,19.958h1.234
				C992.091,1646.66,992.026,1638.86,992.026,1638.86z"/>
		</g>
	</g>
	<g>
		<g>
			<path fill="#BDB945" d="M412.009,1305.326l-15.753,42.017l7.876,8.17h-10.502l-9.189,24.51l6.564,15.756h-10.502l-7.22,18.674
				l11.815,14.006l-15.096-4.085l-7.876,24.51l18.755,15.694c20.36-28.757,38.722-58.66,58.683-87.225L412.009,1305.326z"/>
		</g>
		<g>
			<path fill="#94A33C" d="M434.326,1415.036l10.502-23.926l-5.264-13.758c-19.961,28.565-38.323,58.468-58.683,87.225
				l14.719,12.317l43.976-3.501l25.598-25.677l-17.065-46.102L434.326,1415.036z"/>
		</g>
	</g>
	<g>
		<g>
			<path fill="#BDB945" d="M1788.394,1280.72l-7.923,21.132l3.961,4.109h-5.282l-4.622,12.327l3.301,7.925h-5.282l-3.631,9.392
				l5.942,7.044l-7.593-2.055l-3.961,12.327l9.433,7.893c10.24-14.463,19.475-29.502,29.514-43.869L1788.394,1280.72z"/>
		</g>
		<g>
			<path fill="#94A33C" d="M1799.617,1335.898l5.282-12.033l-2.647-6.919c-10.039,14.366-19.274,29.406-29.514,43.869l7.403,6.195
				l22.117-1.761l12.874-12.914l-8.583-23.186L1799.617,1335.898z"/>
		</g>
	</g>
</g>
</svg>
